<svg width="11" height="12" viewBox="0 0 11 12" fill="none" xmlns="http://www.w3.org/2000/svg">
<g id="Arrow - Right 2">
<path id="Arrow - Right 2_2" d="M10.58 7.131C10.5235 7.189 10.3102 7.437 10.1114 7.641C8.9463 8.924 5.90684 11.024 4.316 11.665C4.0744 11.768 3.46359 11.986 3.13724 12C2.82452 12 2.52642 11.928 2.24196 11.782C1.88736 11.578 1.6029 11.257 1.44703 10.878C1.34669 10.615 1.19082 9.828 1.19082 9.814C1.03495 8.953 0.949219 7.554 0.949219 6.008C0.949219 4.535 1.03495 3.193 1.16257 2.319C1.17718 2.305 1.33305 1.327 1.50353 0.992C1.81624 0.38 2.42706 0 3.08073 0H3.13724C3.56295 0.015 4.45823 0.395 4.45823 0.409C5.96334 1.051 8.93266 3.048 10.126 4.375C10.126 4.375 10.4621 4.716 10.6083 4.929C10.8362 5.235 10.9492 5.614 10.9492 5.993C10.9492 6.416 10.8216 6.81 10.58 7.131Z" fill="#006752"/>
</g>
</svg>
