<svg width="13" height="10" viewBox="0 0 13 10" fill="none" xmlns="http://www.w3.org/2000/svg">
<g id="Arrow - Right 2">
<path id="Arrow - Right 2_2" d="M5.369 9.63078C5.311 9.57428 5.063 9.36093 4.859 9.1622C3.576 7.99708 1.476 4.95762 0.835 3.36678C0.732 3.12518 0.514 2.51437 0.5 2.18802C0.5 1.8753 0.572 1.5772 0.718 1.29274C0.922001 0.938139 1.243 0.653677 1.622 0.497808C1.885 0.397467 2.672 0.241597 2.686 0.241597C3.547 0.0857278 4.946 -3.30196e-07 6.492 -2.62618e-07C7.965 -1.98231e-07 9.307 0.0857281 10.181 0.213346C10.195 0.227959 11.173 0.383828 11.508 0.554311C12.12 0.867024 12.5 1.47784 12.5 2.13151L12.5 2.18802C12.485 2.61374 12.105 3.50901 12.091 3.50901C11.449 5.01413 9.452 7.98344 8.125 9.17681C8.125 9.17681 7.784 9.51291 7.571 9.65904C7.265 9.88699 6.886 10 6.507 10C6.084 10 5.69 9.87238 5.369 9.63078Z" fill="#939393"/>
</g>
</svg>
