<svg width="28" height="28" viewBox="0 0 28 28" fill="none" xmlns="http://www.w3.org/2000/svg">
<g id="Group 7279">
<path id="Vector" d="M3.14893 3.1488H5.03705C6.20898 3.1488 7.13133 4.15797 7.03367 5.31905L6.13301 16.1269C5.9811 17.8956 7.3809 19.4148 9.1605 19.4148H20.7171C22.2796 19.4148 23.6469 18.1344 23.7663 16.5826L24.3522 8.44421C24.4824 6.6429 23.1152 5.17798 21.303 5.17798H7.2941" stroke="#F8FCFF" stroke-width="2" stroke-miterlimit="10" stroke-linecap="round" stroke-linejoin="round"/>
<path id="Vector_2" d="M18.6118 24.8512C19.3609 24.8512 19.9682 24.244 19.9682 23.4948C19.9682 22.7457 19.3609 22.1384 18.6118 22.1384C17.8627 22.1384 17.2554 22.7457 17.2554 23.4948C17.2554 24.244 17.8627 24.8512 18.6118 24.8512Z" stroke="#F8FCFF" stroke-width="2" stroke-miterlimit="10" stroke-linecap="round" stroke-linejoin="round"/>
<path id="Vector_3" d="M9.93062 24.8512C10.6797 24.8512 11.287 24.244 11.287 23.4948C11.287 22.7457 10.6797 22.1384 9.93062 22.1384C9.1815 22.1384 8.57422 22.7457 8.57422 23.4948C8.57422 24.244 9.1815 24.8512 9.93062 24.8512Z" stroke="#F8FCFF" stroke-width="2" stroke-miterlimit="10" stroke-linecap="round" stroke-linejoin="round"/>
<path id="Vector_4" d="M10.7446 9.65967H23.7661" stroke="#F8FCFF" stroke-width="2" stroke-miterlimit="10" stroke-linecap="round" stroke-linejoin="round"/>
</g>
</svg>
