<svg width="111" height="126" viewBox="0 0 111 126" fill="none" xmlns="http://www.w3.org/2000/svg">
<g id="Illustration">
<path id="Vector" d="M-37.3848 122.466C-37.3848 122.466 -2.9175 76.7062 18.8364 69.6446C40.5904 62.583 19.9665 90.547 19.9665 90.547C19.9665 90.547 58.3891 48.4596 72.515 52.1317C85.5108 55.5213 72.515 81.7906 72.515 81.7906C72.515 81.7906 87.2059 67.3849 104.722 67.3849C122.521 67.3849 91.1612 121.336 91.1612 121.336L-37.3848 122.466Z" fill="#D7F375"/>
<g id="Group">
<g id="Group_2">
<g id="Group_3">
<path id="Vector_2" d="M23.9683 60.2426C31.0312 49.2264 32.4438 35.6681 32.1613 26.6292C31.8788 16.4604 30.1836 9.1163 30.1836 8.83383L30.7487 8.55139C30.7487 8.55139 32.7264 16.178 32.7264 26.3467C33.0089 35.6681 31.5963 49.2264 24.2508 60.525L23.9683 60.2426Z" fill="url(#paint0_linear_2754_1462)"/>
</g>
<g id="Group_4">
<path id="Vector_3" d="M28.4873 6.85631C28.7698 9.11603 29.6174 11.0933 31.03 12.2232C32.16 10.5284 33.0076 8.55111 32.7251 6.29139C32.4426 4.03166 31.5949 2.05442 30.1823 0.924561C29.0523 2.33689 28.4873 4.59659 28.4873 6.85631Z" fill="url(#paint1_linear_2754_1462)"/>
</g>
<g id="Group_5">
<path id="Vector_4" d="M33.2912 12.2235C32.1611 14.2007 31.5961 16.4604 32.1611 18.4377C34.1388 17.8728 35.8339 16.7429 36.964 14.7656C38.094 12.7884 38.6591 10.5286 38.094 8.55139C36.3989 8.83386 34.7038 10.2462 33.2912 12.2235Z" fill="url(#paint2_linear_2754_1462)"/>
</g>
<g id="Group_6">
<path id="Vector_5" d="M36.117 18.4375C34.1394 19.5673 33.0094 21.5446 32.4443 23.5218C34.1394 24.0868 36.3996 23.8043 38.0947 22.392C40.0723 21.2621 41.2024 19.2848 41.7674 17.3076C40.0723 16.7426 38.0947 17.0251 36.117 18.4375Z" fill="url(#paint3_linear_2754_1462)"/>
</g>
<g id="Group_7">
<path id="Vector_6" d="M35.2687 26.9116C33.8561 27.759 33.0086 29.4537 32.7261 31.431C34.1387 31.9959 36.1162 31.9959 37.5288 31.1485C38.9414 30.3011 39.789 28.6063 40.0715 26.6291C38.3764 25.7817 36.6813 26.0642 35.2687 26.9116Z" fill="url(#paint4_linear_2754_1462)"/>
</g>
<g id="Group_8">
<path id="Vector_7" d="M29.0536 16.7426C27.3585 15.8952 25.6634 15.8952 23.9683 16.4601C24.2508 18.1549 25.3809 19.8497 27.076 20.6971C28.7711 21.5445 30.4662 21.5445 32.1613 20.9796C31.8788 19.2848 30.7487 17.59 29.0536 16.7426Z" fill="url(#paint5_linear_2754_1462)"/>
</g>
<g id="Group_9">
<path id="Vector_8" d="M29.3363 22.6744C27.6412 21.827 25.9461 21.827 24.251 22.3919C24.5335 24.0867 25.6635 25.7815 27.3586 26.6289C29.0537 27.4763 30.7489 27.4763 32.444 26.9113C32.1615 25.2166 31.0314 23.5218 29.3363 22.6744Z" fill="url(#paint6_linear_2754_1462)"/>
</g>
<g id="Group_10">
<path id="Vector_9" d="M34.1388 36.5152C33.2912 36.7977 32.4437 37.3626 32.1611 38.21C32.7262 38.775 33.5737 39.0574 34.4212 38.775C35.2688 38.4925 36.1164 37.9276 36.3989 37.0802C35.8339 36.5152 34.9864 36.2328 34.1388 36.5152Z" fill="url(#paint7_linear_2754_1462)"/>
</g>
</g>
<g id="Group_11">
<g id="Group_12">
<path id="Vector_10" d="M27.0752 67.8689C43.1788 63.9144 55.6095 52.0509 63.2375 42.7295C71.4306 32.5607 75.6684 23.2394 75.9509 22.9569L76.516 23.2394C76.516 23.2394 71.9957 32.8432 63.8026 43.012C56.1746 52.6158 43.7437 64.7618 27.3576 68.4339L27.0752 67.8689Z" fill="url(#paint8_linear_2754_1462)"/>
</g>
<g id="Group_13">
<path id="Vector_11" d="M75.6687 19.2848C73.9736 21.827 73.4086 24.6516 73.9736 27.1938C76.5163 26.9114 79.059 25.499 80.7541 22.9569C82.4492 20.4147 83.0142 17.59 82.4492 15.0479C79.624 15.6128 77.3638 17.0251 75.6687 19.2848Z" fill="url(#paint9_linear_2754_1462)"/>
</g>
<g id="Group_14">
<path id="Vector_12" d="M75.9518 29.4536C73.1266 30.301 70.8664 31.9958 69.7363 34.5379C71.9965 35.9503 74.8217 36.5152 77.6469 35.6678C80.4721 34.8204 82.7322 33.1256 83.8623 30.5834C81.6021 29.1711 78.777 28.6062 75.9518 29.4536Z" fill="url(#paint10_linear_2754_1462)"/>
</g>
<g id="Group_15">
<path id="Vector_13" d="M73.6899 38.4926C70.8647 37.9277 68.0394 38.4926 65.7793 39.9049C67.1919 42.1647 69.4521 44.142 72.2773 44.7069C75.1025 45.2718 77.9276 44.7069 80.1878 43.2946C78.7752 40.7524 76.5151 39.0575 73.6899 38.4926Z" fill="url(#paint11_linear_2754_1462)"/>
</g>
<g id="Group_16">
<path id="Vector_14" d="M67.1937 46.4014C64.3685 45.8365 61.5434 46.4014 59.2832 47.8137C60.6958 50.0735 62.9559 52.0507 65.7811 52.6157C68.6063 53.1806 71.4315 52.6157 73.6917 51.2033C72.2791 48.9436 70.0189 47.2488 67.1937 46.4014Z" fill="url(#paint12_linear_2754_1462)"/>
</g>
<g id="Group_17">
<path id="Vector_15" d="M68.888 33.1255C69.1705 30.3008 68.0405 27.7586 66.6279 25.7814C64.9328 27.1937 63.8027 29.7359 63.5201 32.2781C63.2376 35.1027 64.3677 37.6449 65.7803 39.6222C67.7579 38.2099 68.888 35.6677 68.888 33.1255Z" fill="url(#paint13_linear_2754_1462)"/>
</g>
<g id="Group_18">
<path id="Vector_16" d="M62.3907 41.3171C62.6732 38.4924 61.8256 35.9503 60.1305 33.973C58.4354 35.3854 57.3053 37.6451 57.0228 40.4697C56.7403 43.2944 57.5879 45.8366 59.283 47.8138C60.9781 46.4015 62.1082 44.1418 62.3907 41.3171Z" fill="url(#paint14_linear_2754_1462)"/>
</g>
<g id="Group_19">
<path id="Vector_17" d="M56.7394 54.5929C55.6093 54.028 54.4792 53.7455 53.3491 54.0279C53.6316 55.1578 54.1967 56.2876 55.3268 56.8526C56.4569 57.4175 57.5869 57.7 58.717 57.4175C58.4344 56.2877 57.8695 55.1578 56.7394 54.5929Z" fill="url(#paint15_linear_2754_1462)"/>
</g>
</g>
<path id="Vector_18" d="M44.591 121.255C44.591 118.148 25.9448 121.82 24.2497 117.583C22.8371 113.346 40.3532 113.063 40.3532 107.414C40.3532 101.765 31.3126 105.719 26.2272 105.719C20.8594 105.719 36.6805 103.177 36.6805 101.2C36.6805 99.2224 31.3126 100.352 31.3126 98.0925C31.3126 95.8328 60.1295 94.4205 56.7393 89.0536C53.3491 83.6868 37.8105 90.466 33.5728 87.9238C29.335 85.0991 56.1742 82.2745 57.0218 78.32C57.5868 74.3654 37.2455 81.7095 34.4203 78.8849C31.5951 76.0602 66.91 65.609 65.2149 57.9824C63.8023 50.3559 38.3756 67.8687 32.1602 65.8915C25.9447 63.9142 64.0848 37.08 55.0442 26.6288C46.2861 16.1775 29.335 61.372 23.4021 59.6772C17.4692 57.9824 30.7476 31.1482 24.8147 26.3463C18.8818 21.5444 1.93064 64.1967 0.800568 72.9531C-0.329506 81.7096 -2.30712 54.0279 -11.6302 50.9208C-20.9534 47.8137 -11.9128 67.8687 -13.6079 74.083C-15.303 80.2972 -22.6485 58.2649 -32.8191 59.9597C-42.9898 61.6545 -14.4554 81.7095 -17.2806 87.6413C-20.1058 93.5731 -42.1423 67.8687 -48.9227 74.9304C-55.7032 81.7095 -22.3659 100.917 -24.3436 106.284C-26.3212 111.651 -46.0975 102.612 -52.0304 108.261C-57.6807 113.911 -30.559 117.583 -26.8862 117.583C-23.2135 117.583 -9.37009 122.102 -22.931 121.255C-36.4919 120.407 44.591 124.362 44.591 121.255Z" fill="url(#paint16_linear_2754_1462)"/>
</g>
</g>
<defs>
<linearGradient id="paint0_linear_2754_1462" x1="23.968" y1="34.5371" x2="32.757" y2="34.5371" gradientUnits="userSpaceOnUse">
<stop stop-color="#5DB53C"/>
<stop offset="1" stop-color="#2FA043"/>
</linearGradient>
<linearGradient id="paint1_linear_2754_1462" x1="28.4872" y1="6.57363" x2="32.7786" y2="6.57363" gradientUnits="userSpaceOnUse">
<stop stop-color="#5DB53C"/>
<stop offset="1" stop-color="#2FA043"/>
</linearGradient>
<linearGradient id="paint2_linear_2754_1462" x1="31.9393" y1="13.4943" x2="38.3138" y2="13.4943" gradientUnits="userSpaceOnUse">
<stop stop-color="#5DB53C"/>
<stop offset="1" stop-color="#2FA043"/>
</linearGradient>
<linearGradient id="paint3_linear_2754_1462" x1="32.444" y1="20.4146" x2="41.7647" y2="20.4146" gradientUnits="userSpaceOnUse">
<stop stop-color="#5DB53C"/>
<stop offset="1" stop-color="#2FA043"/>
</linearGradient>
<linearGradient id="paint4_linear_2754_1462" x1="32.7258" y1="28.971" x2="40.0693" y2="28.971" gradientUnits="userSpaceOnUse">
<stop stop-color="#5DB53C"/>
<stop offset="1" stop-color="#2FA043"/>
</linearGradient>
<linearGradient id="paint5_linear_2754_1462" x1="23.968" y1="18.7197" x2="32.1589" y2="18.7197" gradientUnits="userSpaceOnUse">
<stop stop-color="#5DB53C"/>
<stop offset="1" stop-color="#2FA043"/>
</linearGradient>
<linearGradient id="paint6_linear_2754_1462" x1="24.2507" y1="24.6515" x2="32.4416" y2="24.6515" gradientUnits="userSpaceOnUse">
<stop stop-color="#5DB53C"/>
<stop offset="1" stop-color="#2FA043"/>
</linearGradient>
<linearGradient id="paint7_linear_2754_1462" x1="32.161" y1="37.645" x2="36.3977" y2="37.645" gradientUnits="userSpaceOnUse">
<stop stop-color="#5DB53C"/>
<stop offset="1" stop-color="#2FA043"/>
</linearGradient>
<linearGradient id="paint8_linear_2754_1462" x1="27.0736" y1="45.6944" x2="76.5015" y2="45.6944" gradientUnits="userSpaceOnUse">
<stop stop-color="#5DB53C"/>
<stop offset="1" stop-color="#2FA043"/>
</linearGradient>
<linearGradient id="paint9_linear_2754_1462" x1="73.7614" y1="21.1206" x2="82.6585" y2="21.1206" gradientUnits="userSpaceOnUse">
<stop stop-color="#5DB53C"/>
<stop offset="1" stop-color="#2FA043"/>
</linearGradient>
<linearGradient id="paint10_linear_2754_1462" x1="69.7359" y1="32.5605" x2="83.8581" y2="32.5605" gradientUnits="userSpaceOnUse">
<stop stop-color="#5DB53C"/>
<stop offset="1" stop-color="#2FA043"/>
</linearGradient>
<linearGradient id="paint11_linear_2754_1462" x1="65.7788" y1="41.5996" x2="80.1836" y2="41.5996" gradientUnits="userSpaceOnUse">
<stop stop-color="#5DB53C"/>
<stop offset="1" stop-color="#2FA043"/>
</linearGradient>
<linearGradient id="paint12_linear_2754_1462" x1="59.2827" y1="49.5084" x2="73.6875" y2="49.5084" gradientUnits="userSpaceOnUse">
<stop stop-color="#5DB53C"/>
<stop offset="1" stop-color="#2FA043"/>
</linearGradient>
<linearGradient id="paint13_linear_2754_1462" x1="63.4764" y1="32.7015" x2="68.93" y2="32.7015" gradientUnits="userSpaceOnUse">
<stop stop-color="#5DB53C"/>
<stop offset="1" stop-color="#2FA043"/>
</linearGradient>
<linearGradient id="paint14_linear_2754_1462" x1="56.9691" y1="40.8931" x2="62.4426" y2="40.8931" gradientUnits="userSpaceOnUse">
<stop stop-color="#5DB53C"/>
<stop offset="1" stop-color="#2FA043"/>
</linearGradient>
<linearGradient id="paint15_linear_2754_1462" x1="53.349" y1="55.7227" x2="58.7154" y2="55.7227" gradientUnits="userSpaceOnUse">
<stop stop-color="#5DB53C"/>
<stop offset="1" stop-color="#2FA043"/>
</linearGradient>
<linearGradient id="paint16_linear_2754_1462" x1="-52.8055" y1="73.7598" x2="65.2395" y2="73.7598" gradientUnits="userSpaceOnUse">
<stop stop-color="#5DB53C"/>
<stop offset="1" stop-color="#2FA043"/>
</linearGradient>
</defs>
</svg>
