<svg width="63" height="61" viewBox="0 0 63 61" fill="none" xmlns="http://www.w3.org/2000/svg">
<g id="Group 31">
<g id="Group">
<path id="Vector" d="M30.2832 59.3587C30.2832 59.3587 51.0554 59.0928 61.3224 29.9077C61.3224 29.9077 40.5654 33.1445 30.2832 59.3587Z" fill="url(#paint0_linear_315_8154)"/>
<path id="Vector_2" d="M52.7161 38.8028C52.7161 38.8028 51.4876 40.2367 49.497 42.2455C49.0289 42.7618 48.4433 43.3358 47.8578 43.9099C47.2722 44.4839 46.687 45.115 46.0426 45.6893C45.3984 46.3207 44.7543 46.9521 44.0514 47.5838C43.3484 48.2154 42.7046 48.904 42.0016 49.5356C41.2987 50.1673 40.5957 50.799 39.8928 51.4307C39.1898 52.0624 38.4868 52.694 37.8424 53.2683C37.198 53.8426 36.4948 54.4171 35.9089 54.934C35.2642 55.4511 34.6784 55.968 34.1511 56.4275C33.0377 57.3467 32.0999 58.0937 31.4549 58.5537C31.103 58.7839 30.8688 59.0135 30.634 59.1288C30.458 59.2439 30.3406 59.3015 30.3406 59.3015C30.3406 59.3015 30.3992 59.2441 30.5748 59.0719C30.7505 58.8997 30.9847 58.6701 31.2775 58.3831C31.8631 57.8091 32.6825 56.9484 33.7368 55.9723C34.2638 55.4557 34.7908 54.9391 35.3764 54.3651C35.9619 53.7911 36.5475 53.2171 37.1916 52.5857C37.8357 51.9542 38.4798 51.3228 39.1828 50.6912C39.8858 50.0595 40.5299 49.4281 41.2325 48.7393C41.9355 48.1076 42.6384 47.4759 43.3414 46.8442C44.0444 46.2126 44.7473 45.5809 45.3917 45.0066C46.0361 44.4323 46.6805 43.8581 47.3249 43.2838C47.9108 42.7669 48.5555 42.2498 49.0828 41.7903C51.1922 40.0095 52.7161 38.8028 52.7161 38.8028Z" fill="url(#paint1_linear_315_8154)"/>
</g>
<g id="Group_2">
<path id="Vector_3" d="M20.6622 57.9918C20.6622 57.9918 39.0724 67.3375 62.3887 46.3154C62.3887 46.3154 42.5207 39.6052 20.6622 57.9918Z" fill="url(#paint2_linear_315_8154)"/>
<path id="Vector_4" d="M50.4617 50.1983C50.4617 50.1983 48.6407 50.8924 45.879 51.7623C45.1739 51.9941 44.4689 52.226 43.6461 52.4584C42.8822 52.6905 42.0008 52.9802 41.178 53.2126C40.2964 53.4452 39.4151 53.735 38.5334 53.9677C37.593 54.2006 36.7116 54.4904 35.7711 54.7233C34.8306 54.9562 33.8902 55.189 33.0085 55.4217C32.0681 55.6546 31.1864 55.8872 30.3045 56.0627C29.4229 56.2953 28.5998 56.4705 27.7767 56.6458C26.9537 56.821 26.1894 56.9959 25.4838 57.1134C24.0728 57.4056 22.8969 57.6396 22.0147 57.7579C21.603 57.817 21.2501 57.8757 21.0147 57.8768C20.7793 57.8779 20.6619 57.9356 20.6619 57.9356C20.6619 57.9356 20.7793 57.8779 21.0144 57.8196C21.2496 57.7614 21.5432 57.6458 21.9546 57.5296C22.7774 57.2972 23.8939 56.9492 25.304 56.4855C26.0091 56.2537 26.7142 56.0219 27.5369 55.7895C28.3009 55.5574 29.1825 55.3248 30.0053 55.0924C30.8869 54.8598 31.7682 54.57 32.7087 54.3371C33.6492 54.1042 34.5305 53.8144 35.471 53.5815C36.4115 53.3486 37.352 53.1157 38.2336 52.8831C39.1741 52.6502 40.0557 52.4175 40.9374 52.1849C41.819 51.9523 42.6421 51.777 43.4651 51.6018C44.2882 51.4266 45.0524 51.2517 45.7578 51.077C48.5801 50.5497 50.4617 50.1983 50.4617 50.1983Z" fill="url(#paint3_linear_315_8154)"/>
</g>
<g id="Group_3">
<path id="Vector_5" d="M21.3339 39.1603C19.3014 37.9222 17.8297 34.9209 17.0609 33.1636C18.6923 30.2215 21.085 27.5695 24.4324 25.867C24.9374 25.5712 25.5062 25.3486 26.0112 25.0528C27.7965 27.4658 30.1446 28.4823 30.1446 28.4823C29.3829 28.119 28.9895 25.4795 28.7913 23.8664C31.7614 22.6791 34.6063 21.7859 37.2627 21.1869C38.6048 23.6019 40.3189 24.4746 40.3189 24.4746C39.6179 23.5974 39.9255 21.8352 40.2991 20.5863C47.2583 19.3809 52.1995 19.7988 52.1995 19.7988C52.1995 19.7988 51.6651 26.771 49.1104 34.9262C47.4641 34.9336 45.1831 34.6505 44.1011 33.5549C44.1011 33.5549 45.5109 36.85 47.5502 39.4086C46.6123 41.7605 45.4845 44.1133 44.2293 46.32C42.6396 45.0066 40.2215 42.6698 40.1485 40.7626C40.1485 40.7626 38.7861 46.7848 40.016 52.0616C37.7492 54.5663 35.0369 56.6328 31.878 58.041C30.8522 55.5512 29.6305 51.8884 30.1899 49.8317C30.1899 49.8317 27.8598 52.3366 28.5277 59.1567C26.3774 59.6799 23.9728 59.9843 21.3759 59.8493L13.8825 55.6279C13.8825 55.6279 12.311 45.4372 15.6217 36.5449C19.0574 39.7575 21.3339 39.1603 21.3339 39.1603Z" fill="#006752"/>
<path id="Vector_6" d="M46.8422 24.8119C46.8422 24.8119 46.2109 25.1816 45.1382 25.9201C44.0651 26.5853 42.4873 27.6196 40.721 28.9482C39.8379 29.6125 38.8281 30.2774 37.8187 31.0156C36.8093 31.7538 35.6737 32.566 34.6017 33.4513C33.4664 34.3368 32.3307 35.149 31.1958 36.1079C30.0605 36.9934 28.9256 37.9523 27.7274 38.9115C26.5924 39.8704 25.4579 40.9027 24.323 41.8616C23.1881 42.8205 22.1802 43.8522 21.1089 44.8842C20.1007 45.8426 19.1561 46.874 18.2111 47.832C17.3295 48.7898 16.5112 49.7473 15.7558 50.6311C15.3781 51.073 15.0638 51.5146 14.7494 51.9563C14.435 52.3979 14.1203 52.7662 13.8693 53.2075C13.3035 54.0171 12.9273 54.7525 12.5504 55.3411C12.4252 55.6352 12.2367 55.9295 12.1112 56.1501C11.9857 56.3708 11.9235 56.5912 11.8613 56.8116C11.7365 57.179 11.6739 57.326 11.6739 57.326C11.6739 57.326 11.7365 57.179 11.9246 56.8113C11.9872 56.6643 12.1127 56.4436 12.2382 56.2229C12.3637 56.0023 12.5522 55.708 12.7407 55.4136C13.1176 54.825 13.5575 54.1627 14.187 53.4262C14.4384 53.0582 14.8164 52.6896 15.1312 52.3214C15.4459 51.9531 15.8236 51.5112 16.2013 51.0693C16.579 50.6274 17.0204 50.2585 17.398 49.8166C17.839 49.3744 18.2801 48.9322 18.7211 48.49C19.6664 47.6053 20.6113 46.6473 21.6829 45.6887C22.1873 45.2462 22.7545 44.7301 23.2585 44.2142C23.8258 43.6981 24.3301 43.2556 24.8973 42.7394C26.0323 41.7805 27.1039 40.8219 28.3021 39.8627C29.437 38.9038 30.5719 37.9449 31.7069 36.986C32.8418 36.0271 33.9771 35.1415 35.049 34.2563C37.193 32.4858 39.2743 30.8623 40.9769 29.4606C44.5091 26.73 46.8422 24.8119 46.8422 24.8119Z" fill="#3C8F7C"/>
</g>
<g id="Group_4">
<path id="Vector_7" d="M11.2178 56.5886C11.2178 56.5886 2.45515 27.5964 3.65986 22.4082C4.86457 17.22 7.5271 13.5804 11.6322 16.302C15.7372 19.0235 17.2739 19.284 16.3122 15.0433C15.3601 10.8589 18.7749 0.427526 25.7421 2.43102C32.6513 4.44436 29.5306 11.3489 28.3479 14.2154C27.1169 17.1482 25.2273 21.1199 27.7709 19.9344C30.3146 18.749 33.1391 17.1101 33.4163 19.7866C33.7031 22.5194 27.6484 25.5183 25.1119 28.8467C22.5174 32.1849 22.7758 34.401 25.6287 33.2789C28.4816 32.1567 33.8537 34.2574 31.3272 37.2943C28.8587 40.3213 15.1353 54.3584 15.1353 54.3584L11.2178 56.5886Z" fill="url(#paint4_linear_315_8154)"/>
<path id="Vector_8" d="M12.7287 53.8978C12.7487 53.3149 12.8075 52.6095 12.7987 51.8577C12.8383 51.0397 12.9263 50.1556 13.0627 49.2052C13.1315 48.2085 13.3163 47.192 13.482 46.0628C13.6476 44.9337 13.8712 43.7947 14.0756 42.5431C14.1144 42.4206 14.0952 42.308 14.134 42.1855C13.8928 41.8209 13.6228 41.2872 13.2756 40.6509C12.9284 40.0145 12.5715 39.3218 12.1955 38.5165C12.0123 38.142 11.8195 37.7112 11.6267 37.2803C11.4339 36.8495 11.2411 36.4187 11.0482 35.9879C10.8554 35.5571 10.6626 35.1263 10.5278 34.6856C10.335 34.2548 10.2002 33.8141 10.017 33.4396C9.69896 32.6244 9.39055 31.8655 9.21734 31.1996C8.75491 29.8874 8.5337 28.9399 8.5337 28.9399C8.5337 28.9399 9.02573 29.7255 9.72018 30.9983C10.0674 31.6347 10.4242 32.3274 10.8002 33.1327C10.9834 33.5072 11.1763 33.938 11.3691 34.3688C11.5619 34.7996 11.7547 35.2304 11.9475 35.6613C12.1403 36.0921 12.3331 36.5229 12.4679 36.9636C12.6607 37.3944 12.7956 37.8351 12.9788 38.2096C13.2968 39.0248 13.6052 39.7836 13.8364 40.4397C14.0484 40.9831 14.1832 41.4238 14.3084 41.8082C14.4933 40.7917 14.6877 39.8315 14.8725 38.815C15.1349 37.5535 15.3973 36.2921 15.7082 34.9644C16.291 32.4316 16.9223 29.8326 17.5339 27.4688C18.1456 25.1049 18.7764 22.8537 19.2909 20.97C19.8053 19.0862 20.3098 17.4939 20.659 16.3915C21.0082 15.2891 21.2022 14.6767 21.2022 14.6767C21.2022 14.6767 21.0758 15.3356 20.7846 16.4281C20.561 17.5671 20.1726 19.1397 19.7257 21.0699C19.0749 23.904 18.2396 27.4069 17.4331 31.0786C17.4235 31.0223 17.4815 31.0125 17.4719 30.9561C17.7527 30.5028 18.082 29.9833 18.4788 29.5103C18.866 28.9809 19.2532 28.4515 19.6985 27.9123C20.1437 27.3731 20.5889 26.8339 20.9858 26.3608C21.4406 25.8779 21.8374 25.4049 22.1955 25.0543C22.9019 24.2969 23.4824 23.8506 23.4824 23.8506C23.4824 23.8506 23.1723 24.4827 22.6107 25.3894C22.3299 25.8427 21.991 26.3059 21.6038 26.8353C21.2166 27.3647 20.8294 27.894 20.3841 28.4332C19.9389 28.9725 19.4937 29.5117 19.0968 29.9847C18.642 30.4676 18.2452 30.9407 17.8871 31.2912C17.6355 31.5658 17.3743 31.784 17.2291 31.9825C16.9863 33.0089 16.7434 34.0352 16.5102 35.1179C16.2478 36.3794 15.9274 37.6507 15.6649 38.9122C15.4025 40.1736 15.1401 41.4351 14.8585 42.5839C14.6444 43.7792 14.3628 44.9281 14.1392 46.0671C13.964 47.1399 13.7308 48.2225 13.5363 49.1827C13.4391 49.6628 13.3999 50.1331 13.2931 50.5568C13.1863 50.9806 13.1375 51.3945 13.0887 51.8085C12.9815 52.58 12.8647 53.2952 12.8447 53.8781C12.7951 54.9875 12.7363 55.6928 12.7363 55.6928C12.7363 55.6928 12.7467 55.0536 12.7287 53.8978Z" fill="url(#paint5_linear_315_8154)"/>
<path id="Vector_9" d="M21.8953 41.1558C21.8953 41.1558 21.4499 41.6951 20.7917 42.3865C20.4336 42.7372 20.027 43.154 19.5528 43.5243C19.0883 43.951 18.5561 44.3312 18.0335 44.7677C17.5013 45.1479 16.9787 45.5845 16.4949 45.8985C15.9628 46.2787 15.479 46.5927 15.1016 46.8307C14.2405 47.3827 13.6311 47.6601 13.6311 47.6601C13.6311 47.6601 14.0765 47.1208 14.7347 46.4294C15.0929 46.0788 15.509 45.7183 15.9736 45.2916C16.4381 44.8649 16.9703 44.4847 17.4929 44.0482C18.0251 43.668 18.5477 43.2314 19.0315 42.9174C19.5637 42.5372 20.0474 42.2232 20.4248 41.9852C21.2859 41.4332 21.8953 41.1558 21.8953 41.1558Z" fill="url(#paint6_linear_315_8154)"/>
</g>
</g>
<defs>
<linearGradient id="paint0_linear_315_8154" x1="50.3083" y1="18.9342" x2="43.873" y2="57.9773" gradientUnits="userSpaceOnUse">
<stop offset="0.1047" stop-color="#A1CE57"/>
<stop offset="0.9543" stop-color="#158D43"/>
</linearGradient>
<linearGradient id="paint1_linear_315_8154" x1="45.0203" y1="36.766" x2="38.3807" y2="61.5433" gradientUnits="userSpaceOnUse">
<stop offset="0.1047" stop-color="#158D43"/>
<stop offset="0.9543" stop-color="#0F6838"/>
</linearGradient>
<linearGradient id="paint2_linear_315_8154" x1="54.6462" y1="39.0373" x2="29.2376" y2="66.0437" gradientUnits="userSpaceOnUse">
<stop offset="0.1047" stop-color="#A1CE57"/>
<stop offset="0.9543" stop-color="#158D43"/>
</linearGradient>
<linearGradient id="paint3_linear_315_8154" x1="44.6904" y1="44.861" x2="27.0204" y2="63.8831" gradientUnits="userSpaceOnUse">
<stop offset="0.1047" stop-color="#158D43"/>
<stop offset="0.9543" stop-color="#0F6838"/>
</linearGradient>
<linearGradient id="paint4_linear_315_8154" x1="7.53031" y1="-0.576327" x2="22.5655" y2="37.7964" gradientUnits="userSpaceOnUse">
<stop offset="0.1047" stop-color="#A1CE57"/>
<stop offset="0.9543" stop-color="#158D43"/>
</linearGradient>
<linearGradient id="paint5_linear_315_8154" x1="4.65858" y1="42.3946" x2="28.9916" y2="27.5376" gradientUnits="userSpaceOnUse">
<stop offset="0.1047" stop-color="#158D43"/>
<stop offset="0.9543" stop-color="#0F6838"/>
</linearGradient>
<linearGradient id="paint6_linear_315_8154" x1="13.1811" y1="47.0225" x2="22.1282" y2="41.5593" gradientUnits="userSpaceOnUse">
<stop offset="0.1047" stop-color="#158D43"/>
<stop offset="0.9543" stop-color="#0F6838"/>
</linearGradient>
</defs>
</svg>
