<svg width="20" height="24" viewBox="0 0 20 24" fill="none" xmlns="http://www.w3.org/2000/svg">
<g id="Vector">
<path d="M16.5084 0.37207C16.6713 0.408477 16.8342 0.444884 16.9971 0.485842C18.6833 0.931829 19.8764 2.56104 19.7884 4.30403C19.6915 6.18355 18.4015 7.68989 16.6317 7.94474C15.4694 8.11312 14.448 7.76725 13.5807 6.94354C13.5235 6.88893 13.4663 6.82977 13.4046 6.77061C13.4002 6.76606 13.3914 6.76606 13.365 6.75241C11.3619 8.03575 9.34988 9.32365 7.32911 10.6161C7.6593 11.5399 7.6593 12.4547 7.32911 13.3785C9.34548 14.6709 11.353 15.9543 13.3738 17.2513C13.4971 17.1375 13.616 17.0192 13.7436 16.9054C14.9323 15.8724 16.6053 15.7222 17.9481 16.5231C19.2689 17.315 20.0085 18.9078 19.7443 20.4142C19.4626 22.0525 18.2871 23.2858 16.7418 23.5679C14.043 24.064 11.7713 21.4017 12.5946 18.6939C12.6562 18.4891 12.621 18.3981 12.4449 18.2843C10.5562 17.0875 8.67189 15.8769 6.79199 14.6664C6.65111 14.5754 6.57627 14.5936 6.4618 14.7073C5.35236 15.8269 3.72781 16.1181 2.3366 15.4491C0.954196 14.7847 0.0868912 13.3102 0.214565 11.7402C0.34224 10.1701 1.1303 9.0324 2.55233 8.45899C3.97876 7.88558 5.28191 8.19048 6.42218 9.24174C6.47941 9.29635 6.52344 9.36916 6.57186 9.43288C6.65111 9.39192 6.69954 9.37371 6.73916 9.34641C8.66308 8.11767 10.5826 6.88438 12.5065 5.65564C12.6298 5.57828 12.6562 5.51457 12.6078 5.36894C11.9034 3.07074 13.2858 0.786201 15.6147 0.408477C15.6499 0.403926 15.6808 0.385723 15.716 0.37207C15.9801 0.37207 16.2443 0.37207 16.5084 0.37207ZM16.1122 22.2345C17.411 22.23 18.45 21.1468 18.4412 19.8043C18.4368 18.48 17.3846 17.406 16.099 17.406C14.8047 17.406 13.7568 18.5028 13.7701 19.8407C13.7833 21.1741 14.8223 22.2391 16.1122 22.2345ZM13.7701 4.18116C13.7701 5.51002 14.8135 6.59313 16.0946 6.59768C17.389 6.60223 18.4412 5.51457 18.4412 4.18116C18.4412 2.8432 17.389 1.76009 16.0902 1.76919C14.8003 1.77374 13.7701 2.84775 13.7701 4.18116ZM1.55294 11.9905C1.54854 13.3193 2.58314 14.4024 3.86869 14.4115C5.16745 14.4206 6.22406 13.3421 6.22406 12.0087C6.22846 10.6798 5.19386 9.59671 3.90391 9.5876C2.60516 9.5785 1.55735 10.648 1.55294 11.9905Z" fill="white"/>
<path d="M18.9548 4.55455C18.9548 6.08487 17.7142 7.32544 16.1839 7.32544C14.6535 7.32544 13.413 6.08487 13.413 4.55455C13.413 3.02422 14.6535 1.78365 16.1839 1.78365C17.7142 1.78365 18.9548 3.02422 18.9548 4.55455Z" fill="white"/>
<path d="M6.92636 12.0001C6.92636 13.5304 5.68579 14.771 4.15546 14.771C2.62514 14.771 1.38457 13.5304 1.38457 12.0001C1.38457 10.4698 2.62514 9.2292 4.15546 9.2292C5.68579 9.2292 6.92636 10.4698 6.92636 12.0001Z" fill="white"/>
<path d="M18.9548 19.998C18.9548 21.5283 17.7142 22.7689 16.1839 22.7689C14.6535 22.7689 13.413 21.5283 13.413 19.998C13.413 18.4676 14.6535 17.2271 16.1839 17.2271C17.7142 17.2271 18.9548 18.4676 18.9548 19.998Z" fill="white"/>
</g>
</svg>
