<svg width="45" height="32" viewBox="0 0 45 32" fill="none" xmlns="http://www.w3.org/2000/svg">
<g id="Group 7184">
<path id="Vector" d="M7.2373 31.1889C7.2373 31.1889 15.9314 19.6465 21.4186 17.8653C26.9059 16.084 21.7037 23.1377 21.7037 23.1377C21.7037 23.1377 31.3955 12.5215 34.9586 13.4478C38.2367 14.3028 34.9586 20.929 34.9586 20.929C34.9586 20.929 38.6643 17.2953 43.0826 17.2953C47.5722 17.2953 39.662 30.9039 39.662 30.9039L7.2373 31.1889Z" fill="#73C5BE"/>
<g id="Group">
<g id="Group_2">
<g id="Group_3">
<path id="Vector_2" d="M22.7129 15.4938C24.4945 12.715 24.8508 9.29504 24.7795 7.01505C24.7083 4.45006 24.2807 2.59757 24.2807 2.52632L24.4232 2.45508C24.4232 2.45508 24.922 4.37882 24.922 6.94381C24.9933 9.29504 24.637 12.715 22.7842 15.565L22.7129 15.4938Z" fill="#3C8F7C"/>
</g>
<g id="Group_4">
<path id="Vector_3" d="M23.8525 2.02749C23.9238 2.59748 24.1376 3.09624 24.4939 3.38123C24.779 2.95374 24.9927 2.45499 24.9215 1.88499C24.8502 1.31499 24.6364 0.816248 24.2801 0.53125C23.995 0.887498 23.8525 1.45749 23.8525 2.02749Z" fill="#3C8F7C"/>
</g>
<g id="Group_5">
<path id="Vector_4" d="M25.0641 3.38133C24.7791 3.88007 24.6365 4.45007 24.7791 4.94881C25.2779 4.80632 25.7055 4.52131 25.9905 4.02257C26.2756 3.52382 26.4181 2.95383 26.2756 2.45508C25.848 2.52633 25.4204 2.88258 25.0641 3.38133Z" fill="#3C8F7C"/>
</g>
<g id="Group_6">
<path id="Vector_5" d="M25.7775 4.94866C25.2786 5.23366 24.9936 5.73241 24.8511 6.23116C25.2787 6.37366 25.8488 6.3024 26.2763 5.94615C26.7752 5.66115 27.0602 5.1624 27.2027 4.66366C26.7752 4.52116 26.2763 4.59241 25.7775 4.94866Z" fill="#3C8F7C"/>
</g>
<g id="Group_7">
<path id="Vector_6" d="M25.5632 7.08618C25.2069 7.29993 24.9931 7.72742 24.9219 8.22616C25.2782 8.36866 25.777 8.36867 26.1333 8.15492C26.4896 7.94117 26.7034 7.51367 26.7747 7.01492C26.3471 6.80117 25.9196 6.87243 25.5632 7.08618Z" fill="#3C8F7C"/>
</g>
<g id="Group_8">
<path id="Vector_7" d="M23.9956 4.52115C23.568 4.3074 23.1405 4.3074 22.7129 4.4499C22.7842 4.8774 23.0692 5.3049 23.4968 5.51865C23.9244 5.73239 24.3519 5.73239 24.7795 5.58989C24.7083 5.16239 24.4232 4.73489 23.9956 4.52115Z" fill="#3C8F7C"/>
</g>
<g id="Group_9">
<path id="Vector_8" d="M24.0669 6.01749C23.6393 5.80374 23.2118 5.80374 22.7842 5.94624C22.8554 6.37373 23.1405 6.80123 23.5681 7.01498C23.9956 7.22873 24.4232 7.22873 24.8508 7.08623C24.7795 6.65874 24.4945 6.23124 24.0669 6.01749Z" fill="#3C8F7C"/>
</g>
<g id="Group_10">
<path id="Vector_9" d="M25.2781 9.50866C25.0644 9.57991 24.8506 9.72242 24.7793 9.93617C24.9218 10.0787 25.1356 10.1499 25.3494 10.0787C25.5632 10.0074 25.777 9.86491 25.8482 9.65116C25.7057 9.50866 25.4919 9.43742 25.2781 9.50866Z" fill="#3C8F7C"/>
</g>
</g>
<g id="Group_11">
<g id="Group_12">
<path id="Vector_10" d="M23.4966 17.4174C27.5586 16.4199 30.6941 13.4275 32.6182 11.0762C34.6849 8.51123 35.7538 6.15999 35.8251 6.08875L35.9676 6.16C35.9676 6.16 34.8274 8.58249 32.7608 11.1475C30.8367 13.57 27.7011 16.6337 23.5678 17.5599L23.4966 17.4174Z" fill="#3C8F7C"/>
</g>
<g id="Group_13">
<path id="Vector_11" d="M35.754 5.16249C35.3264 5.80374 35.1839 6.51623 35.3264 7.15747C35.9678 7.08623 36.6091 6.72998 37.0367 6.08873C37.4643 5.44748 37.6068 4.735 37.4643 4.09375C36.7517 4.23625 36.1816 4.5925 35.754 5.16249Z" fill="#3C8F7C"/>
</g>
<g id="Group_14">
<path id="Vector_12" d="M35.8251 7.72738C35.1125 7.94113 34.5424 8.36863 34.2573 9.00988C34.8274 9.36612 35.5401 9.50862 36.2527 9.29487C36.9653 9.08112 37.5354 8.65363 37.8205 8.01239C37.2504 7.65614 36.5378 7.51363 35.8251 7.72738Z" fill="#3C8F7C"/>
</g>
<g id="Group_15">
<path id="Vector_13" d="M35.2547 10.0075C34.542 9.86499 33.8294 10.0075 33.2593 10.3637C33.6156 10.9337 34.1857 11.4325 34.8983 11.575C35.611 11.7175 36.3236 11.575 36.8937 11.2187C36.5374 10.5775 35.9673 10.15 35.2547 10.0075Z" fill="#3C8F7C"/>
</g>
<g id="Group_16">
<path id="Vector_14" d="M33.616 12.0024C32.9033 11.8599 32.1907 12.0024 31.6206 12.3586C31.9769 12.9286 32.547 13.4274 33.2596 13.5698C33.9723 13.7123 34.6849 13.5698 35.255 13.2136C34.8987 12.6436 34.3286 12.2161 33.616 12.0024Z" fill="#3C8F7C"/>
</g>
<g id="Group_17">
<path id="Vector_15" d="M34.0432 8.65364C34.1145 7.94115 33.8294 7.29989 33.4731 6.80115C33.0455 7.1574 32.7605 7.79864 32.6892 8.43989C32.618 9.15239 32.903 9.79364 33.2593 10.2924C33.7582 9.93614 34.0432 9.29489 34.0432 8.65364Z" fill="#3C8F7C"/>
</g>
<g id="Group_18">
<path id="Vector_16" d="M32.4046 10.7199C32.4759 10.0074 32.2621 9.36618 31.8345 8.86743C31.4069 9.22368 31.1219 9.79368 31.0506 10.5062C30.9794 11.2187 31.1932 11.8599 31.6207 12.3587C32.0483 12.0024 32.3334 11.4324 32.4046 10.7199Z" fill="#3C8F7C"/>
</g>
<g id="Group_19">
<path id="Vector_17" d="M30.9792 14.0687C30.6941 13.9262 30.4091 13.8549 30.124 13.9261C30.1953 14.2111 30.3378 14.4961 30.6229 14.6386C30.9079 14.7811 31.193 14.8524 31.478 14.7811C31.4068 14.4961 31.2642 14.2112 30.9792 14.0687Z" fill="#3C8F7C"/>
</g>
</g>
<g id="Group_20">
<g id="Group_21">
<g id="Group_22">
<path id="Vector_18" d="M12.6646 23.2598H12.5221C12.8072 18.5574 11.0256 14.1399 9.60035 11.2899C7.9613 8.15491 6.32224 6.15991 6.25098 6.08866L6.39351 5.94617C6.39351 5.94617 8.10381 8.01241 9.74286 11.1474C11.1681 14.0686 12.8784 18.4861 12.6646 23.2598Z" fill="#3C8F7C"/>
</g>
<g id="Group_23">
<path id="Vector_19" d="M5.39606 5.80371C5.82364 6.51621 6.39375 6.87246 6.96386 7.01496C7.03512 6.30246 6.89259 5.51872 6.53627 4.80622C6.1087 4.09373 5.5386 3.73747 4.9685 3.59497C4.89724 4.30747 5.03975 5.16247 5.39606 5.80371Z" fill="#3C8F7C"/>
</g>
<g id="Group_24">
<path id="Vector_20" d="M7.60498 6.65869C7.60498 7.51368 7.81877 8.22618 8.24634 8.79618C8.67392 8.36868 8.95898 7.65618 9.03024 6.80118C9.03024 5.94619 8.81646 5.23369 8.38888 4.6637C7.89004 5.09119 7.60498 5.80369 7.60498 6.65869Z" fill="#3C8F7C"/>
</g>
<g id="Group_25">
<path id="Vector_21" d="M9.31597 8.08364C8.95966 8.79614 8.8884 9.57989 9.10219 10.2924C9.6723 10.1499 10.2424 9.72239 10.5275 9.00989C10.8838 8.29739 10.955 7.51364 10.7412 6.80115C10.1711 6.94365 9.60103 7.37115 9.31597 8.08364Z" fill="#3C8F7C"/>
</g>
<g id="Group_26">
<path id="Vector_22" d="M10.4556 11.7174C10.3131 12.0024 10.2419 12.3586 10.3131 12.6436C10.5269 12.5724 10.812 12.4299 10.9545 12.1449C11.097 11.8599 11.1683 11.5036 11.097 11.2186C10.8832 11.2186 10.6694 11.4324 10.4556 11.7174Z" fill="#3C8F7C"/>
</g>
<g id="Group_27">
<path id="Vector_23" d="M11.026 12.9999C10.8834 13.2849 10.8122 13.6411 10.8834 13.9261C11.0972 13.8548 11.3823 13.7123 11.5248 13.4273C11.6673 13.1423 11.7386 12.7861 11.6673 12.5011C11.3823 12.5011 11.1685 12.7149 11.026 12.9999Z" fill="#3C8F7C"/>
</g>
<g id="Group_28">
<path id="Vector_24" d="M7.10639 8.79614C6.53629 8.79614 5.96618 9.08115 5.60986 9.57989C5.96618 10.0786 6.53627 10.3636 7.17764 10.2924C7.74774 10.2924 8.31785 10.0074 8.67417 9.50864C8.24659 9.08114 7.6765 8.79614 7.10639 8.79614Z" fill="#3C8F7C"/>
</g>
<g id="Group_29">
<path id="Vector_25" d="M8.10444 10.6487C7.53433 10.6487 6.96423 10.9336 6.60791 11.4324C6.96423 11.9311 7.53434 12.2161 8.17571 12.1449C8.74581 12.1449 9.3159 11.8599 9.67221 11.3611C9.24463 10.8624 8.67454 10.5774 8.10444 10.6487Z" fill="#3C8F7C"/>
</g>
<g id="Group_30">
<path id="Vector_26" d="M9.7428 13.0712C9.31522 13.0712 9.03017 13.2849 8.74512 13.5699C9.03017 13.8549 9.38648 14.0687 9.7428 14.0687C10.1704 14.0687 10.4554 13.8549 10.7405 13.5699C10.4554 13.2849 10.0991 13.0712 9.7428 13.0712Z" fill="#3C8F7C"/>
</g>
</g>
</g>
<path id="Vector_27" d="M27.9147 30.8836C27.9147 30.0998 23.2113 31.026 22.7837 29.9573C22.4274 28.8886 26.8457 28.8173 26.8457 27.3923C26.8457 25.9673 24.5653 26.9648 23.2826 26.9648C21.9286 26.9648 25.9193 26.3236 25.9193 25.8248C25.9193 25.3261 24.5653 25.6111 24.5653 25.0411C24.5653 24.4711 31.8341 24.1148 30.979 22.7611C30.1238 21.4074 26.2044 23.1173 25.1354 22.4761C24.0665 21.7636 30.8364 21.0511 31.0502 20.0536C31.1928 19.0561 26.0618 20.9086 25.3492 20.1961C24.6366 19.4836 33.5445 16.8474 33.1169 14.9236C32.7606 12.9999 26.3469 17.4174 24.7791 16.9186C23.2113 16.4199 32.8318 9.65116 30.5514 7.01493C28.3423 4.37869 24.0665 15.7786 22.5699 15.3511C21.0734 14.9236 24.4228 8.15493 22.9263 6.94369C21.4297 5.73244 17.1539 16.4911 16.8689 18.6999C16.5838 20.9086 16.085 13.9261 13.7333 13.1424C11.3816 12.3587 13.6621 17.4174 13.2345 18.9849C12.8069 20.5524 10.9541 14.9949 8.3886 15.4224C5.82313 15.8499 13.0207 20.9086 12.3081 22.4049C11.5954 23.9011 6.03691 17.4174 4.3266 19.1986C2.61628 20.9086 11.0253 25.7536 10.5265 27.1073C10.0276 28.4611 5.03924 26.1811 3.54272 27.6061C2.11746 29.0311 8.95871 29.9573 9.88513 29.9573C10.8115 29.9573 14.3034 31.0973 10.8828 30.8836C7.46218 30.6698 27.9147 31.6673 27.9147 30.8836Z" fill="#3C8F7C"/>
<g id="Group_31">
<path id="Vector_28" d="M14.5178 31.8098C14.5178 31.8098 8.8167 32.0948 7.17765 31.0973C5.5386 30.0285 6.82133 29.2448 6.82133 29.2448C6.82133 29.2448 1.54788 29.1023 1.61914 27.8911C1.61914 26.6798 2.90186 26.7511 2.90186 26.7511C2.90186 26.7511 0.265133 24.9698 0.763974 23.8298C1.54787 22.1198 5.82365 25.1123 5.82365 25.1123C5.82365 25.1123 4.3984 23.4023 5.53861 23.0461C8.67418 21.9061 14.5178 31.8098 14.5178 31.8098Z" fill="#5DB64E"/>
<path id="Vector_29" d="M0.692685 23.7585C0.193843 24.8985 2.83058 26.6798 2.83058 26.6798C2.83058 26.6798 0.906465 26.6798 1.26278 27.891C1.54783 29.1023 6.39373 29.5298 6.39373 29.5298C6.39373 29.5298 4.68341 29.886 6.39373 30.8835C8.03278 31.9523 14.5177 31.8098 14.5177 31.8098L0.692685 23.7585Z" fill="#3C8F7C"/>
</g>
</g>
</g>
</svg>
