<svg width="33" height="60" viewBox="0 0 33 60" fill="none" xmlns="http://www.w3.org/2000/svg">
<g id="Group">
<path id="Vector" d="M26.9632 29.1895C26.9632 28.9955 26.6722 28.85 26.5752 28.9955C26.4297 29.1895 26.4297 29.044 26.2842 29.4319C25.8963 30.4987 25.3143 31.517 24.6353 32.3898C23.3258 34.0869 22.0649 34.9597 20.6099 35.8325C21.1919 34.4748 21.6284 33.0686 21.6769 31.6139C21.6769 31.0805 21.6769 30.5472 21.4829 30.0623C21.4344 29.9168 21.1919 29.9653 21.1434 30.1108C20.9979 30.8381 21.1919 31.42 20.9494 32.7292C20.3674 35.9295 18.088 39.2752 15.9056 41.6512C16.3421 37.6266 16.5361 33.1171 15.7601 29.044C15.6146 28.3652 15.4206 27.7348 15.2751 27.1044C15.2266 26.959 15.0326 27.0075 15.0326 27.1529C15.0811 27.3469 15.4206 30.1593 15.4691 30.3532C15.8086 33.408 15.7601 36.8508 15.4691 39.9541C13.7717 37.6266 12.6077 34.9597 12.0742 32.0988C11.9287 31.2745 11.8802 30.4017 11.6377 29.5774C11.5892 29.4804 11.4437 29.4319 11.3952 29.5774C11.1528 30.7896 11.6377 32.9716 11.9772 34.1354C12.6562 36.5113 13.7232 38.6449 15.1781 40.5844C15.2266 40.6814 12.8017 59.3498 12.8987 59.5922C12.9957 59.9801 13.7232 60.2711 13.8202 59.5437C13.8687 59.2528 15.1781 47.9063 15.8086 42.621C16.0511 42.4755 16.1966 42.2816 16.7786 41.6027C18.1365 40.0995 19.446 38.2085 20.3674 36.4144C20.9009 36.3659 24.7808 34.5233 26.6722 30.2077C26.7207 30.0623 26.9632 29.5289 27.0117 29.3834C26.9632 29.3834 26.9632 29.3349 26.9632 29.1895Z" fill="#154655"/>
<path id="Vector_2" d="M14.5477 23.1285C14.5962 22.5466 14.5962 21.9648 14.5962 21.3829C14.5962 14.6914 11.7833 9.30908 8.24291 9.30908C4.70253 9.30908 1.88962 14.7399 1.88962 21.3829C1.88962 21.9648 1.88962 22.5466 1.93812 23.1285H14.5477Z" fill="#AFD13A"/>
<path id="Vector_3" d="M21.7254 20.1706C21.7739 19.3462 21.7739 18.5219 21.7739 17.6976C21.7739 8.29069 18.961 0.629395 15.4206 0.629395C11.9288 0.629395 9.06736 8.2422 9.06736 17.6976C9.06736 18.5219 9.06736 19.3947 9.11585 20.1706H21.7254Z" fill="#61B899"/>
<path id="Vector_4" d="M19.3976 30.5958C19.3491 30.0139 19.3491 29.4321 19.3491 28.8502C19.3491 22.1587 22.162 16.7764 25.7024 16.7764C29.1943 16.7764 32.0557 22.2072 32.0557 28.8502C32.0557 29.4321 32.0557 30.0139 32.0072 30.5958H19.3976Z" fill="#61B899"/>
<path id="Vector_5" d="M9.261 30.5956C9.2125 29.7713 9.164 28.947 9.164 28.1227C9.164 18.7157 12.7529 11.0544 17.1662 11.0544C21.5796 11.0544 25.1685 18.6673 25.1685 28.1227C25.1685 28.947 25.12 29.8198 25.0715 30.5956H9.261Z" fill="#AFD13A"/>
<path id="Vector_6" d="M15.4205 11.1029C13.1896 11.1029 11.2497 13.5274 9.94023 17.3095C9.26126 16.9701 8.58228 16.7761 7.8548 16.7761C3.92644 16.7761 0.725548 22.2069 0.725548 28.85C0.725548 29.4318 0.774044 30.0137 0.822542 30.5956H22.4528C22.5013 29.7713 22.5498 28.9469 22.5498 28.1226C22.5498 18.7157 19.3489 11.1029 15.4205 11.1029Z" fill="#61B899"/>
</g>
</svg>
