<svg width="38" height="70" viewBox="0 0 38 70" fill="none" xmlns="http://www.w3.org/2000/svg">
<g id="Group">
<path id="Vector" d="M6.69681 33.3754C6.69681 33.1487 7.03686 32.9787 7.15021 33.1487C7.32023 33.3754 7.32023 33.2054 7.49026 33.6587C7.94365 34.9053 8.62375 36.0952 9.4172 37.1152C10.9474 39.0984 12.421 40.1184 14.1212 41.1383C13.4411 39.5518 12.931 37.9085 12.8744 36.2086C12.8744 35.5853 12.8744 34.962 13.1011 34.3953C13.1577 34.2253 13.4411 34.282 13.4978 34.452C13.6678 35.302 13.4411 35.9819 13.7245 37.5118C14.4046 41.2517 17.0683 45.1615 19.6186 47.938C19.1086 43.2349 18.8819 37.9652 19.7887 33.2054C19.9587 32.4121 20.1854 31.6755 20.3554 30.9388C20.4121 30.7688 20.6388 30.8255 20.6388 30.9955C20.5821 31.2221 20.1854 34.5087 20.1287 34.7353C19.732 38.3051 19.7887 42.3283 20.1287 45.9548C22.1123 43.2349 23.4725 40.1184 24.0959 36.7752C24.266 35.8119 24.3226 34.792 24.606 33.8287C24.6627 33.7154 24.8327 33.6587 24.8894 33.8287C25.1728 35.2453 24.606 37.7952 24.2093 39.1551C23.4158 41.9316 22.169 44.4249 20.4688 46.6914C20.4121 46.8047 23.2458 68.6204 23.1325 68.9037C23.0191 69.357 22.169 69.697 22.0556 68.847C21.999 68.5071 20.4688 55.2477 19.732 49.0713C19.4486 48.9013 19.2786 48.6747 18.5985 47.8814C17.0116 46.1248 15.4814 43.9149 14.4046 41.8183C13.7811 41.7616 9.24717 39.6084 7.03686 34.5653C6.98019 34.3953 6.69681 33.772 6.64014 33.602C6.69681 33.602 6.69681 33.5454 6.69681 33.3754Z" fill="#154655"/>
<path id="Vector_2" d="M21.2056 26.2926C21.1489 25.6126 21.1489 24.9326 21.1489 24.2527C21.1489 16.433 24.4361 10.1433 28.5733 10.1433C32.7106 10.1433 35.9977 16.4897 35.9977 24.2527C35.9977 24.9326 35.9977 25.6126 35.941 26.2926H21.2056Z" fill="#AFD13A"/>
<path id="Vector_3" d="M12.8174 22.8358C12.7607 21.8726 12.7607 20.9093 12.7607 19.946C12.7607 8.95316 16.0479 0.000244141 20.1851 0.000244141C24.2657 0.000244141 27.6095 8.89649 27.6095 19.946C27.6095 20.9093 27.6095 21.9292 27.5528 22.8358H12.8174Z" fill="#B0F558"/>
<path id="Vector_4" d="M15.5377 35.0186C15.5944 34.3387 15.5944 33.6587 15.5944 32.9787C15.5944 25.1591 12.3072 18.8694 8.16999 18.8694C4.08941 18.8694 0.745605 25.2158 0.745605 32.9787C0.745605 33.6587 0.745605 34.3387 0.80228 35.0186H15.5377Z" fill="#B0F558"/>
<path id="Vector_5" d="M27.3832 35.0185C27.4399 34.0552 27.4966 33.0919 27.4966 32.1286C27.4966 21.1358 23.3027 12.1829 18.1453 12.1829C12.9879 12.1829 8.79395 21.0791 8.79395 32.1286C8.79395 33.0919 8.85062 34.1118 8.9073 35.0185H27.3832Z" fill="#AFD13A"/>
<path id="Vector_6" d="M20.1852 12.2395C22.7922 12.2395 25.0592 15.0727 26.5894 19.4925C27.3829 19.0958 28.1763 18.8692 29.0264 18.8692C33.6171 18.8692 37.3576 25.2156 37.3576 32.9785C37.3576 33.6585 37.3009 34.3385 37.2443 35.0184H11.9674C11.9107 34.0551 11.854 33.0919 11.854 32.1286C11.854 21.1357 15.5945 12.2395 20.1852 12.2395Z" fill="#B0F558"/>
</g>
</svg>
