<svg width="12" height="10" viewBox="0 0 12 10" fill="none" xmlns="http://www.w3.org/2000/svg">
<g id="Arrow - Right 2">
<path id="Arrow - Right 2_2" d="M4.86949 9.63078C4.81149 9.57428 4.56349 9.36093 4.35949 9.1622C3.07649 7.99708 0.976488 4.95762 0.335488 3.36678C0.232488 3.12518 0.0144881 2.51437 0.000488186 2.18802C0.000488199 1.8753 0.0724887 1.5772 0.218489 1.29274C0.422489 0.938139 0.743488 0.653677 1.12249 0.497808C1.38549 0.397467 2.17249 0.241597 2.18649 0.241597C3.04749 0.0857278 4.44649 -3.30196e-07 5.99249 -2.62618e-07C7.46549 -1.98231e-07 8.80749 0.0857281 9.68149 0.213346C9.69549 0.227959 10.6735 0.383828 11.0085 0.554311C11.6205 0.867024 12.0005 1.47784 12.0005 2.13151L12.0005 2.18802C11.9855 2.61374 11.6055 3.50901 11.5915 3.50901C10.9495 5.01413 8.95249 7.98344 7.62549 9.17681C7.62549 9.17681 7.28449 9.51291 7.07149 9.65904C6.76549 9.88699 6.38649 10 6.00749 10C5.58449 10 5.19049 9.87238 4.86949 9.63078Z" fill="#939393"/>
</g>
</svg>
