<svg width="13" height="10" viewBox="0 0 13 10" fill="none" xmlns="http://www.w3.org/2000/svg">
<g id="Arrow - Right 2">
<path id="Arrow - Right 2_2" d="M5.36949 9.63078C5.31149 9.57428 5.06349 9.36093 4.85949 9.1622C3.57649 7.99708 1.47649 4.95762 0.835488 3.36678C0.732488 3.12518 0.514488 2.51437 0.500488 2.18802C0.500488 1.8753 0.572489 1.5772 0.718489 1.29274C0.922489 0.938139 1.24349 0.653677 1.62249 0.497808C1.88549 0.397467 2.67249 0.241597 2.68649 0.241597C3.54749 0.0857278 4.94649 -3.30196e-07 6.49249 -2.62618e-07C7.96549 -1.98231e-07 9.30749 0.0857281 10.1815 0.213346C10.1955 0.227959 11.1735 0.383828 11.5085 0.554311C12.1205 0.867024 12.5005 1.47784 12.5005 2.13151L12.5005 2.18802C12.4855 2.61374 12.1055 3.50901 12.0915 3.50901C11.4495 5.01413 9.45249 7.98344 8.12549 9.17681C8.12549 9.17681 7.78449 9.51291 7.57149 9.65904C7.26549 9.88699 6.88649 10 6.50749 10C6.08449 10 5.69049 9.87238 5.36949 9.63078Z" fill="#0F6838"/>
</g>
</svg>
