<svg width="144" height="101" viewBox="0 0 144 101" fill="none" xmlns="http://www.w3.org/2000/svg">
<g id="Group 3">
<path id="Vector" d="M121.964 100.649C121.964 100.649 93.6171 63.0147 75.7258 57.207C57.8345 51.3992 74.7964 74.398 74.7964 74.398C74.7964 74.398 43.1962 39.7836 31.5784 42.8037C20.8901 45.5914 31.5784 67.1963 31.5784 67.1963C31.5784 67.1963 19.496 55.3485 5.09 55.3485C-9.54834 55.3485 16.243 99.7198 16.243 99.7198L121.964 100.649Z" fill="#95CEC3"/>
<g id="Group">
<g id="Group_2">
<g id="Group_3">
<path id="Vector_2" d="M71.5059 49.4746C65.697 40.4144 64.5352 29.2635 64.7676 21.8296C64.9999 13.4664 66.3941 7.42627 66.3941 7.19396L65.9294 6.96167C65.9294 6.96167 64.3029 13.2341 64.3029 21.5973C64.0705 29.2635 65.2323 40.4144 71.2735 49.7069L71.5059 49.4746Z" fill="#3C8F7C"/>
</g>
<g id="Group_4">
<path id="Vector_3" d="M67.7881 5.56772C67.5557 7.4262 66.8587 9.0524 65.6969 9.98164C64.7675 8.58778 64.0704 6.96159 64.3028 5.1031C64.5351 3.24461 65.2322 1.61845 66.394 0.689209C67.3234 1.85076 67.7881 3.70923 67.7881 5.56772Z" fill="#3C8F7C"/>
</g>
<g id="Group_5">
<path id="Vector_4" d="M63.8368 9.98196C64.7662 11.6081 65.2309 13.4666 64.7662 15.0928C63.1397 14.6282 61.7455 13.6989 60.8161 12.0727C59.8867 10.4466 59.422 8.58809 59.8867 6.96191C61.2808 7.19422 62.675 8.35579 63.8368 9.98196Z" fill="#3C8F7C"/>
</g>
<g id="Group_6">
<path id="Vector_5" d="M61.5134 15.0926C63.1398 16.0218 64.0692 17.648 64.5339 19.2742C63.1398 19.7388 61.281 19.5065 59.8868 18.3449C58.2604 17.4157 57.331 15.7895 56.8663 14.1633C58.2604 13.6987 59.8869 13.931 61.5134 15.0926Z" fill="#3C8F7C"/>
</g>
<g id="Group_7">
<path id="Vector_6" d="M62.2113 22.0618C63.3731 22.7587 64.0701 24.1526 64.3025 25.7788C63.1407 26.2434 61.5143 26.2434 60.3525 25.5465C59.1907 24.8495 58.4937 23.4557 58.2613 21.8295C59.6555 21.1326 61.0495 21.3649 62.2113 22.0618Z" fill="#3C8F7C"/>
</g>
<g id="Group_8">
<path id="Vector_7" d="M67.3235 13.6987C68.7176 13.0018 70.1117 13.0018 71.5059 13.4664C71.2735 14.8603 70.3441 16.2541 68.9499 16.9511C67.5558 17.648 66.1617 17.648 64.7676 17.1834C64.9999 15.7895 65.9294 14.3956 67.3235 13.6987Z" fill="#3C8F7C"/>
</g>
<g id="Group_9">
<path id="Vector_8" d="M67.0911 18.5769C68.4852 17.88 69.8793 17.8799 71.2734 18.3446C71.0411 19.7384 70.1117 21.1323 68.7176 21.8292C67.3235 22.5262 65.9293 22.5262 64.5352 22.0615C64.7675 20.6677 65.697 19.2738 67.0911 18.5769Z" fill="#3C8F7C"/>
</g>
<g id="Group_10">
<path id="Vector_9" d="M63.1396 29.9605C63.8367 30.1928 64.5338 30.6575 64.7661 31.3544C64.3014 31.819 63.6044 32.0513 62.9073 31.819C62.2102 31.5867 61.5131 31.1221 61.2808 30.4251C61.7455 29.9605 62.4425 29.7282 63.1396 29.9605Z" fill="#3C8F7C"/>
</g>
</g>
<g id="Group_11">
<g id="Group_12">
<path id="Vector_10" d="M68.9502 55.747C55.706 52.4947 45.4824 42.7376 39.2088 35.0713C32.4705 26.7081 28.9852 19.0419 28.7529 18.8096L28.2881 19.0419C28.2881 19.0419 32.0058 26.9405 38.7441 35.3037C45.0177 43.2022 55.2413 53.1916 68.7179 56.2116L68.9502 55.747Z" fill="#FD5C37"/>
</g>
<g id="Group_13">
<path id="Vector_11" d="M28.9841 15.7896C30.3782 17.8804 30.8429 20.2035 30.3782 22.2943C28.287 22.062 26.1958 20.9004 24.8017 18.8096C23.4075 16.7188 22.9429 14.3957 23.4076 12.3049C25.7311 12.7696 27.59 13.9311 28.9841 15.7896Z" fill="#FD5C37"/>
</g>
<g id="Group_14">
<path id="Vector_12" d="M28.7524 24.1526C31.076 24.8496 32.9348 26.2434 33.8643 28.3342C32.0054 29.4958 29.6818 29.9604 27.3583 29.2635C25.0347 28.5665 23.1759 27.1727 22.2465 25.0819C24.1054 23.9204 26.4289 23.4557 28.7524 24.1526Z" fill="#FD5C37"/>
</g>
<g id="Group_15">
<path id="Vector_13" d="M30.6105 31.5867C32.934 31.1221 35.2576 31.5867 37.1165 32.7483C35.9547 34.6068 34.0958 36.233 31.7723 36.6976C29.4487 37.1622 27.1252 36.6976 25.2664 35.536C26.4281 33.4453 28.2869 32.0514 30.6105 31.5867Z" fill="#FD5C37"/>
</g>
<g id="Group_16">
<path id="Vector_14" d="M35.9541 38.0911C38.2776 37.6265 40.6011 38.0911 42.46 39.2527C41.2982 41.1112 39.4394 42.7373 37.1158 43.202C34.7923 43.6666 32.4687 43.202 30.6099 42.0404C31.7716 40.1819 33.6305 38.7881 35.9541 38.0911Z" fill="#FD5C37"/>
</g>
<g id="Group_17">
<path id="Vector_15" d="M34.5614 27.1732C34.329 24.85 35.2584 22.7592 36.4202 21.1331C37.8143 22.2946 38.7438 24.3854 38.9761 26.4762C39.2085 28.7993 38.2791 30.8901 37.1173 32.5163C35.4908 31.3548 34.5614 29.264 34.5614 27.1732Z" fill="#FD5C37"/>
</g>
<g id="Group_18">
<path id="Vector_16" d="M39.9047 33.9099C39.6723 31.5868 40.3695 29.496 41.7636 27.8699C43.1577 29.0314 44.0871 30.8899 44.3195 33.213C44.5519 35.5361 43.8547 37.6269 42.4606 39.2531C41.0665 38.0915 40.1371 36.233 39.9047 33.9099Z" fill="#FD5C37"/>
</g>
<g id="Group_19">
<path id="Vector_17" d="M44.5518 44.8282C45.4812 44.3636 46.4107 44.1313 47.3401 44.3636C47.1077 45.2928 46.643 46.2221 45.7136 46.6867C44.7842 47.1513 43.8548 47.3837 42.9254 47.1514C43.1577 46.2221 43.6224 45.2929 44.5518 44.8282Z" fill="#FD5C37"/>
</g>
</g>
<g id="Group_20">
<g id="Group_21">
<g id="Group_22">
<path id="Vector_18" d="M104.267 74.7963H104.731C103.802 59.4638 109.611 45.0605 114.258 35.768C119.602 25.5464 124.946 19.0417 125.178 18.8093L124.714 18.3447C124.714 18.3447 119.137 25.0817 113.793 35.3034C109.146 44.8282 103.569 59.2315 104.267 74.7963Z" fill="#FDD04C"/>
</g>
<g id="Group_23">
<path id="Vector_19" d="M127.965 17.8799C126.571 20.203 124.712 21.3645 122.853 21.8292C122.621 19.506 123.086 16.9506 124.248 14.6275C125.642 12.3044 127.501 11.1428 129.359 10.6782C129.592 13.0013 129.127 15.7891 127.965 17.8799Z" fill="#FDD04C"/>
</g>
<g id="Group_24">
<path id="Vector_20" d="M120.765 20.6678C120.765 23.4555 120.068 25.7786 118.674 27.6371C117.28 26.2433 116.35 23.9201 116.118 21.1324C116.118 18.3447 116.815 16.0216 118.209 14.1631C119.835 15.557 120.765 17.8801 120.765 20.6678Z" fill="#FDD04C"/>
</g>
<g id="Group_25">
<path id="Vector_21" d="M115.185 25.3137C116.347 27.6368 116.579 30.1922 115.882 32.5153C114.023 32.0507 112.164 30.6568 111.235 28.3337C110.073 26.0106 109.841 23.4552 110.538 21.1321C112.397 21.5967 114.256 22.9906 115.185 25.3137Z" fill="#FDD04C"/>
</g>
<g id="Group_26">
<path id="Vector_22" d="M111.468 37.1618C111.933 38.0911 112.165 39.2526 111.933 40.1819C111.235 39.9496 110.306 39.4849 109.841 38.5557C109.377 37.6264 109.144 36.4649 109.377 35.5356C110.074 35.5356 110.771 36.2326 111.468 37.1618Z" fill="#FDD04C"/>
</g>
<g id="Group_27">
<path id="Vector_23" d="M109.612 41.3432C110.076 42.2725 110.309 43.434 110.076 44.3633C109.379 44.1309 108.45 43.6663 107.985 42.7371C107.52 41.8078 107.288 40.6463 107.52 39.717C108.45 39.717 109.147 40.414 109.612 41.3432Z" fill="#FDD04C"/>
</g>
<g id="Group_28">
<path id="Vector_24" d="M122.39 27.637C124.249 27.637 126.108 28.5662 127.27 30.1924C126.108 31.8186 124.249 32.7478 122.158 32.5155C120.299 32.5155 118.44 31.5862 117.279 29.9601C118.673 28.5662 120.531 27.637 122.39 27.637Z" fill="#FDD04C"/>
</g>
<g id="Group_29">
<path id="Vector_25" d="M119.136 33.6769C120.995 33.6769 122.854 34.6061 124.015 36.2323C122.854 37.8585 120.995 38.7877 118.904 38.5554C117.045 38.5554 115.186 37.6262 114.024 36C115.418 34.3739 117.277 33.4446 119.136 33.6769Z" fill="#FDD04C"/>
</g>
<g id="Group_30">
<path id="Vector_26" d="M113.793 41.5757C115.187 41.5757 116.117 42.2726 117.046 43.2019C116.117 44.1311 114.955 44.8281 113.793 44.8281C112.399 44.8281 111.47 44.1311 110.54 43.2019C111.47 42.2726 112.631 41.5757 113.793 41.5757Z" fill="#FDD04C"/>
</g>
</g>
</g>
<path id="Vector_27" d="M54.5446 99.6537C54.5446 97.0982 69.88 100.118 71.2741 96.6336C72.4359 93.1489 58.0299 92.9167 58.0299 88.2704C58.0299 83.6242 65.4653 86.8766 69.6477 86.8766C74.0624 86.8766 61.0505 84.7858 61.0505 83.1596C61.0505 81.5334 65.4653 82.4627 65.4653 80.6042C65.4653 78.7457 41.7651 77.5841 44.5533 73.1702C47.3416 68.7563 60.1211 74.3318 63.6064 72.241C67.0918 69.9179 45.0181 67.5948 44.321 64.3424C43.8563 61.0901 60.5859 67.1301 62.9094 64.807C65.233 62.4839 36.1886 53.8884 37.5827 47.616C38.7445 41.3436 59.6564 55.7469 64.7682 54.1207C69.88 52.4946 38.5121 30.425 45.9475 21.8295C53.1505 13.234 67.0918 50.4037 71.9712 49.0099C76.8507 47.616 65.93 25.5465 70.8095 21.5972C75.6889 17.6479 89.6302 52.7269 90.5596 59.9285C91.489 67.1302 93.1155 44.3637 100.783 41.8083C108.451 39.2528 101.016 55.7469 102.41 60.8577C103.804 65.9686 109.845 47.8483 118.21 49.2422C126.575 50.6361 103.107 67.1301 105.43 72.0087C107.754 76.8872 125.878 55.7469 131.454 61.5547C137.031 67.1301 109.613 82.9273 111.239 87.3412C112.866 91.7551 129.13 84.3212 134.01 88.9674C138.657 93.6136 116.351 96.6336 113.33 96.6336C110.31 96.6336 98.9243 100.351 110.077 99.6537C121.23 98.9567 54.5446 102.209 54.5446 99.6537Z" fill="#3C8F7C"/>
<g id="Group_31">
<path id="Vector_28" d="M98.1253 100.505C98.1253 100.505 116.714 101.434 122.058 98.1821C127.402 94.6975 123.22 92.142 123.22 92.142C123.22 92.142 140.414 91.6774 140.182 87.7281C140.182 83.7788 135.999 84.0111 135.999 84.0111C135.999 84.0111 144.596 78.2034 142.97 74.4864C140.414 68.911 126.473 78.668 126.473 78.668C126.473 78.668 131.12 73.0925 127.402 71.931C117.178 68.214 98.1253 100.505 98.1253 100.505Z" fill="#61AD9E"/>
<path id="Vector_29" d="M143.201 74.2542C144.828 77.9711 136.231 83.7789 136.231 83.7789C136.231 83.7789 142.504 83.7789 141.342 87.7282C140.413 91.6775 124.613 93.0713 124.613 93.0713C124.613 93.0713 130.189 94.2329 124.613 97.4852C119.269 100.97 98.1245 100.505 98.1245 100.505L143.201 74.2542Z" fill="#3C8F7C"/>
</g>
</g>
</g>
</svg>
