<svg width="28" height="28" viewBox="0 0 28 28" fill="none" xmlns="http://www.w3.org/2000/svg">
<g id="Group 7279">
<path id="Vector" d="M3.14868 3.1488H5.0368C6.20873 3.1488 7.13108 4.15797 7.03342 5.31905L6.13277 16.1269C5.98085 17.8956 7.38065 19.4148 9.16025 19.4148H20.7168C22.2794 19.4148 23.6466 18.1344 23.766 16.5826L24.352 8.44421C24.4822 6.6429 23.1149 5.17798 21.3028 5.17798H7.29386" stroke="#F8FCFF" stroke-width="2" stroke-miterlimit="10" stroke-linecap="round" stroke-linejoin="round"/>
<path id="Vector_2" d="M18.6118 24.8512C19.3609 24.8512 19.9682 24.244 19.9682 23.4948C19.9682 22.7457 19.3609 22.1384 18.6118 22.1384C17.8627 22.1384 17.2554 22.7457 17.2554 23.4948C17.2554 24.244 17.8627 24.8512 18.6118 24.8512Z" stroke="#F8FCFF" stroke-width="2" stroke-miterlimit="10" stroke-linecap="round" stroke-linejoin="round"/>
<path id="Vector_3" d="M9.93068 24.8512C10.6798 24.8512 11.2871 24.244 11.2871 23.4948C11.2871 22.7457 10.6798 22.1384 9.93068 22.1384C9.18156 22.1384 8.57428 22.7457 8.57428 23.4948C8.57428 24.244 9.18156 24.8512 9.93068 24.8512Z" stroke="#F8FCFF" stroke-width="2" stroke-miterlimit="10" stroke-linecap="round" stroke-linejoin="round"/>
<path id="Vector_4" d="M10.7446 9.65967H23.7661" stroke="#F8FCFF" stroke-width="2" stroke-miterlimit="10" stroke-linecap="round" stroke-linejoin="round"/>
</g>
</svg>
