<svg width="38" height="70" viewBox="0 0 38 70" fill="none" xmlns="http://www.w3.org/2000/svg">
<g id="Group">
<path id="Vector" d="M6.69638 33.3749C6.69638 33.1482 7.03643 32.9782 7.14978 33.1482C7.31981 33.3749 7.31981 33.2049 7.48983 33.6582C7.94323 34.9048 8.62332 36.0948 9.41677 37.1147C10.947 39.0979 12.4205 40.1179 14.1208 41.1379C13.4407 39.5513 12.9306 37.908 12.8739 36.2081C12.8739 35.5848 12.8739 34.9615 13.1006 34.3948C13.1573 34.2248 13.4407 34.2815 13.4973 34.4515C13.6674 35.3015 13.4407 35.9814 13.724 37.5114C14.4041 41.2512 17.0679 45.161 19.6182 47.9375C19.1081 43.2344 18.8814 37.9647 19.7882 33.2049C19.9583 32.4116 20.185 31.675 20.355 30.9383C20.4117 30.7683 20.6384 30.825 20.6384 30.995C20.5817 31.2217 20.185 34.5082 20.1283 34.7348C19.7316 38.3047 19.7882 42.3278 20.1283 45.9543C22.1119 43.2344 23.4721 40.1179 24.0955 36.7747C24.2655 35.8114 24.3222 34.7915 24.6056 33.8282C24.6623 33.7149 24.8323 33.6582 24.889 33.8282C25.1723 35.2448 24.6056 37.7947 24.2089 39.1546C23.4154 41.9312 22.1686 44.4244 20.4683 46.6909C20.4117 46.8043 23.2454 68.6199 23.132 68.9032C23.0187 69.3565 22.1686 69.6965 22.0552 68.8466C21.9985 68.5066 20.4683 55.2472 19.7316 49.0708C19.4482 48.9008 19.2782 48.6742 18.5981 47.8809C17.0112 46.1243 15.481 43.9144 14.4041 41.8178C13.7807 41.7612 9.24675 39.6079 7.03643 34.5648C6.97976 34.3948 6.69638 33.7715 6.63971 33.6015C6.69638 33.6015 6.69638 33.5449 6.69638 33.3749Z" fill="#154655"/>
<path id="Vector_2" d="M21.2052 26.2921C21.1485 25.6121 21.1485 24.9321 21.1485 24.2522C21.1485 16.4325 24.4357 10.1428 28.5729 10.1428C32.7102 10.1428 35.9973 16.4892 35.9973 24.2522C35.9973 24.9321 35.9973 25.6121 35.9406 26.2921H21.2052Z" fill="#AFD13A"/>
<path id="Vector_3" d="M12.8171 22.8354C12.7604 21.8721 12.7604 20.9088 12.7604 19.9455C12.7604 8.95267 16.0475 -0.000244141 20.1848 -0.000244141C24.2654 -0.000244141 27.6092 8.896 27.6092 19.9455C27.6092 20.9088 27.6092 21.9287 27.5525 22.8354H12.8171Z" fill="#B0F558"/>
<path id="Vector_4" d="M15.5375 35.0181C15.5942 34.3382 15.5942 33.6582 15.5942 32.9782C15.5942 25.1586 12.3071 18.8689 8.1698 18.8689C4.08923 18.8689 0.745422 25.2153 0.745422 32.9782C0.745422 33.6582 0.745422 34.3382 0.802097 35.0181H15.5375Z" fill="#B0F558"/>
<path id="Vector_5" d="M27.3829 35.018C27.4395 34.0547 27.4962 33.0914 27.4962 32.1281C27.4962 21.1353 23.3023 12.1824 18.1449 12.1824C12.9875 12.1824 8.79358 21.0786 8.79358 32.1281C8.79358 33.0914 8.85025 34.1113 8.90693 35.018H27.3829Z" fill="#AFD13A"/>
<path id="Vector_6" d="M20.1852 12.239C22.7922 12.239 25.0592 15.0722 26.5894 19.492C27.3829 19.0954 28.1763 18.8687 29.0264 18.8687C33.6171 18.8687 37.3576 25.2151 37.3576 32.978C37.3576 33.658 37.3009 34.338 37.2443 35.0179H11.9674C11.9107 34.0547 11.854 33.0914 11.854 32.1281C11.854 21.1353 15.5945 12.239 20.1852 12.239Z" fill="#B0F558"/>
</g>
</svg>
