<svg width="25" height="55" viewBox="0 0 25 55" fill="none" xmlns="http://www.w3.org/2000/svg">
<g id="Group">
<path id="Vector" d="M20.8141 26.4461C20.8141 26.2678 20.5833 26.134 20.5063 26.2678C20.3909 26.4461 20.3909 26.3124 20.2755 26.6691C19.9677 27.6503 19.506 28.5869 18.9674 29.3896C17.9286 30.9506 16.9283 31.7534 15.7741 32.5561C16.2358 31.3074 16.582 30.014 16.6205 28.6761C16.6205 28.1855 16.6205 27.6949 16.4666 27.2489C16.4282 27.1151 16.2358 27.1597 16.1973 27.2935C16.0819 27.9625 16.2358 28.4977 16.0434 29.7018C15.5817 32.6453 13.7735 35.7226 12.0422 37.908C12.3884 34.2063 12.5423 30.0586 11.9268 26.3124C11.8113 25.688 11.6574 25.1082 11.542 24.5284C11.5036 24.3946 11.3497 24.4392 11.3497 24.573C11.3881 24.7514 11.6574 27.3381 11.6959 27.5165C11.9652 30.3262 11.9268 33.4927 11.6959 36.347C10.3493 34.2063 9.42599 31.7534 9.00278 29.1221C8.88736 28.3639 8.84888 27.5611 8.65652 26.8029C8.61804 26.7137 8.50262 26.6691 8.46415 26.8029C8.27178 27.9179 8.65652 29.9248 8.92583 30.9952C9.46446 33.1805 10.3109 35.1428 11.4651 36.9268C11.5036 37.016 9.57988 54.1864 9.65683 54.4094C9.73378 54.7662 10.3109 55.0338 10.3878 54.3648C10.4263 54.0972 11.4651 43.6611 11.9652 38.7999C12.1576 38.6661 12.273 38.4877 12.7347 37.8634C13.812 36.4808 14.8507 34.7415 15.5817 33.0913C16.0049 33.0467 19.0828 31.352 20.5833 27.3827C20.6218 27.2489 20.8141 26.7583 20.8526 26.6245C20.8141 26.6245 20.8141 26.5799 20.8141 26.4461Z" fill="#154655"/>
<path id="Vector_2" d="M10.9649 20.8714C11.0034 20.3363 11.0034 19.8011 11.0034 19.2659C11.0034 13.1113 8.7719 8.16089 5.96334 8.16089C3.15477 8.16089 0.923313 13.1559 0.923313 19.2659C0.923313 19.8011 0.923316 20.3363 0.961789 20.8714H10.9649Z" fill="#AFD13A"/>
<path id="Vector_3" d="M16.6592 18.1509C16.6976 17.3927 16.6976 16.6346 16.6976 15.8764C16.6976 7.22429 14.4662 0.177734 11.6576 0.177734C8.88752 0.177734 6.61759 7.17969 6.61759 15.8764C6.61759 16.6346 6.61759 17.4373 6.65606 18.1509H16.6592Z" fill="#7DB636"/>
<path id="Vector_4" d="M14.8124 27.7396C14.7739 27.2044 14.7739 26.6692 14.7739 26.1341C14.7739 19.9795 17.0054 15.0291 19.814 15.0291C22.584 15.0291 24.854 20.0241 24.854 26.1341C24.854 26.6692 24.854 27.2044 24.8155 27.7396H14.8124Z" fill="#7DB636"/>
<path id="Vector_5" d="M6.77124 27.7395C6.73277 26.9814 6.6943 26.2232 6.6943 25.465C6.6943 16.8129 9.54133 9.76636 13.0424 9.76636C16.5435 9.76636 19.3905 16.7683 19.3905 25.465C19.3905 26.2232 19.3521 27.026 19.3136 27.7395H6.77124Z" fill="#AFD13A"/>
<path id="Vector_6" d="M11.6573 9.81079C9.88752 9.81079 8.34858 12.0407 7.3098 15.5194C6.77117 15.2072 6.23254 15.0288 5.65544 15.0288C2.53909 15.0288 -0.000152588 20.0238 -0.000152588 26.1338C-0.000152588 26.669 0.0383205 27.2042 0.0767937 27.7394H17.236C17.2744 26.9812 17.3129 26.223 17.3129 25.4648C17.3129 16.8127 14.7736 9.81079 11.6573 9.81079Z" fill="#7DB636"/>
</g>
</svg>
