<svg width="33" height="60" viewBox="0 0 33 60" fill="none" xmlns="http://www.w3.org/2000/svg">
<g id="Group">
<path id="Vector" d="M26.963 29.189C26.963 28.995 26.672 28.8496 26.5751 28.995C26.4296 29.189 26.4296 29.0435 26.2841 29.4314C25.8961 30.4982 25.3141 31.5165 24.6351 32.3893C23.3257 34.0864 22.0647 34.9592 20.6098 35.832C21.1917 34.4743 21.6282 33.0681 21.6767 31.6134C21.6767 31.0801 21.6767 30.5467 21.4827 30.0618C21.4342 29.9163 21.1917 29.9648 21.1432 30.1103C20.9977 30.8376 21.1917 31.4195 20.9492 32.7287C20.3673 35.929 18.0878 39.2747 15.9054 41.6507C16.3419 37.6261 16.5359 33.1166 15.7599 29.0435C15.6144 28.3647 15.4204 27.7343 15.2749 27.1039C15.2264 26.9585 15.0324 27.007 15.0324 27.1524C15.0809 27.3464 15.4204 30.1588 15.4689 30.3527C15.8084 33.4075 15.7599 36.8503 15.4689 39.9536C13.7715 37.6261 12.6075 34.9592 12.074 32.0983C11.9285 31.274 11.88 30.4012 11.6376 29.5769C11.5891 29.4799 11.4436 29.4314 11.3951 29.5769C11.1526 30.7891 11.6376 32.9711 11.977 34.1349C12.656 36.5109 13.723 38.6444 15.1779 40.5839C15.2264 40.6809 12.8015 59.3493 12.8985 59.5917C12.9955 59.9796 13.723 60.2706 13.82 59.5432C13.8685 59.2523 15.1779 47.9058 15.8084 42.6205C16.0509 42.475 16.1964 42.2811 16.7784 41.6022C18.1363 40.0991 19.4458 38.208 20.3673 36.4139C20.9007 36.3654 24.7806 34.5228 26.672 30.2073C26.7205 30.0618 26.963 29.5284 27.0115 29.3829C26.963 29.3829 26.963 29.3344 26.963 29.189Z" fill="#154655"/>
<path id="Vector_2" d="M14.5474 23.128C14.5959 22.5462 14.5959 21.9643 14.5959 21.3824C14.5959 14.6909 11.783 9.30859 8.2426 9.30859C4.70222 9.30859 1.88932 14.7394 1.88932 21.3824C1.88932 21.9643 1.88932 22.5462 1.93782 23.128H14.5474Z" fill="#AFD13A"/>
<path id="Vector_3" d="M21.7254 20.1701C21.7739 19.3457 21.7739 18.5214 21.7739 17.6971C21.7739 8.2902 18.961 0.628906 15.4206 0.628906C11.9288 0.628906 9.06736 8.24171 9.06736 17.6971C9.06736 18.5214 9.06736 19.3942 9.11585 20.1701H21.7254Z" fill="#61B899"/>
<path id="Vector_4" d="M19.3975 30.5953C19.349 30.0134 19.349 29.4316 19.349 28.8497C19.349 22.1582 22.1619 16.7759 25.7023 16.7759C29.1941 16.7759 32.0555 22.2067 32.0555 28.8497C32.0555 29.4316 32.0555 30.0134 32.007 30.5953H19.3975Z" fill="#61B899"/>
<path id="Vector_5" d="M9.26106 30.5951C9.21256 29.7708 9.16406 28.9465 9.16406 28.1222C9.16406 18.7153 12.7529 11.054 17.1663 11.054C21.5796 11.054 25.1685 18.6668 25.1685 28.1222C25.1685 28.9465 25.12 29.8193 25.0715 30.5951H9.26106Z" fill="#AFD13A"/>
<path id="Vector_6" d="M15.4204 11.1025C13.1894 11.1025 11.2495 13.527 9.94005 17.3092C9.26107 16.9697 8.5821 16.7758 7.85462 16.7758C3.92625 16.7758 0.725365 22.2066 0.725365 28.8496C0.725365 29.4315 0.773861 30.0133 0.822359 30.5952H22.4526C22.5011 29.7709 22.5496 28.9466 22.5496 28.1223C22.5496 18.7153 19.3487 11.1025 15.4204 11.1025Z" fill="#61B899"/>
</g>
</svg>
