<svg width="24" height="44" viewBox="0 0 24 44" fill="none" xmlns="http://www.w3.org/2000/svg">
<g id="Group">
<path id="Vector" d="M19.4856 20.9582C19.4856 20.8171 19.2739 20.7112 19.2033 20.8171C19.0975 20.9582 19.0975 20.8523 18.9916 21.1346C18.7093 21.9108 18.2859 22.6517 17.7918 23.2867C16.8391 24.5215 15.9216 25.1566 14.863 25.7917C15.2864 24.8038 15.604 23.7806 15.6393 22.7222C15.6393 22.3341 15.6393 21.946 15.4982 21.5932C15.4629 21.4874 15.2864 21.5227 15.2512 21.6285C15.1453 22.1577 15.2864 22.5811 15.11 23.5337C14.6866 25.8622 13.028 28.2966 11.4401 30.0254C11.7577 27.097 11.8988 23.8159 11.3342 20.8523C11.2284 20.3584 11.0872 19.8998 10.9814 19.4411C10.9461 19.3353 10.8049 19.3705 10.8049 19.4764C10.8402 19.6175 11.0872 21.6638 11.1225 21.8049C11.3695 24.0276 11.3342 26.5326 11.1225 28.7905C9.88746 27.097 9.04056 25.1566 8.6524 23.075C8.54653 22.4753 8.51124 21.8402 8.33481 21.2404C8.29952 21.1699 8.19366 21.1346 8.15837 21.2404C7.98193 22.1224 8.33481 23.7101 8.58182 24.5568C9.07584 26.2856 9.85217 27.8379 10.9108 29.2492C10.9461 29.3197 9.18171 42.9029 9.25228 43.0793C9.32286 43.3615 9.85217 43.5732 9.92274 43.044C9.95803 42.8323 10.9108 34.5766 11.3695 30.731C11.546 30.6251 11.6518 30.484 12.0753 29.9901C13.0633 28.8964 14.0161 27.5204 14.6866 26.215C15.0747 26.1797 17.8977 24.8391 19.2739 21.6991C19.3092 21.5932 19.4856 21.2051 19.5209 21.0993C19.4856 21.0993 19.4856 21.064 19.4856 20.9582Z" fill="#154655"/>
<path id="Vector_2" d="M10.4517 16.5482C10.487 16.1248 10.487 15.7015 10.487 15.2781C10.487 10.4093 8.44029 6.49316 5.86431 6.49316C3.28832 6.49316 1.24165 10.4446 1.24165 15.2781C1.24165 15.7015 1.24165 16.1248 1.27694 16.5482H10.4517Z" fill="#AFD13A"/>
<path id="Vector_3" d="M15.6745 14.3962C15.7098 13.7964 15.7098 13.1966 15.7098 12.5968C15.7098 5.75235 13.6631 0.177979 11.0871 0.177979C8.54645 0.177979 6.46449 5.71707 6.46449 12.5968C6.46449 13.1966 6.46449 13.8317 6.49978 14.3962H15.6745Z" fill="#2FA043"/>
<path id="Vector_4" d="M13.9807 21.9815C13.9454 21.5582 13.9454 21.1348 13.9454 20.7114C13.9454 15.8427 15.9921 11.9265 18.568 11.9265C21.1087 11.9265 23.1907 15.878 23.1907 20.7114C23.1907 21.1348 23.1907 21.5582 23.1554 21.9815H13.9807Z" fill="#2FA043"/>
<path id="Vector_5" d="M6.60558 21.9814C6.57029 21.3816 6.53501 20.7818 6.53501 20.182C6.53501 13.3376 9.14628 7.76318 12.3574 7.76318C15.5686 7.76318 18.1799 13.3023 18.1799 20.182C18.1799 20.7818 18.1446 21.4169 18.1093 21.9814H6.60558Z" fill="#AFD13A"/>
<path id="Vector_6" d="M11.0869 7.79858C9.46369 7.79858 8.05219 9.56262 7.09943 12.3145C6.6054 12.0676 6.11138 11.9264 5.58207 11.9264C2.72378 11.9264 0.394812 15.8779 0.394812 20.7114C0.394812 21.1347 0.430098 21.5581 0.465385 21.9815H16.2036C16.2389 21.3817 16.2742 20.7819 16.2742 20.1821C16.2742 13.3377 13.9452 7.79858 11.0869 7.79858Z" fill="#2FA043"/>
</g>
</svg>
