<svg width="19" height="36" viewBox="0 0 19 36" fill="none" xmlns="http://www.w3.org/2000/svg">
<g id="Group">
<path id="Vector" d="M15.9197 17.4463C15.9197 17.3325 15.7489 17.2471 15.692 17.3325C15.6066 17.4463 15.6066 17.361 15.5212 17.5886C15.2935 18.2147 14.9519 18.8123 14.5535 19.3245C13.785 20.3205 13.045 20.8327 12.1911 21.3449C12.5327 20.5481 12.7888 19.7229 12.8173 18.8692C12.8173 18.5561 12.8173 18.2431 12.7034 17.9586C12.675 17.8732 12.5327 17.9016 12.5042 17.987C12.4188 18.4139 12.5327 18.7553 12.3903 19.5237C12.0488 21.4018 10.7111 23.3653 9.43028 24.7597C9.68644 22.3978 9.80029 19.7513 9.3449 17.361C9.25951 16.9626 9.14566 16.5926 9.06028 16.2227C9.03181 16.1373 8.91797 16.1658 8.91797 16.2511C8.94643 16.365 9.14566 18.0155 9.17413 18.1293C9.37336 19.9221 9.3449 21.9425 9.17413 23.7637C8.17795 22.3978 7.49486 20.8327 7.18177 19.1537C7.09639 18.67 7.06793 18.1578 6.92561 17.674C6.89715 17.6171 6.81177 17.5886 6.7833 17.674C6.64099 18.3854 6.92561 19.666 7.12485 20.3489C7.52332 21.7433 8.14949 22.9954 9.00335 24.1337C9.03181 24.1906 7.60871 35.1465 7.66563 35.2888C7.72256 35.5164 8.14949 35.6871 8.20641 35.2603C8.23487 35.0896 9.00335 28.4307 9.37336 25.3289C9.51567 25.2435 9.60106 25.1297 9.9426 24.7313C10.7395 23.8491 11.508 22.7393 12.0488 21.6864C12.3619 21.6579 14.6389 20.5766 15.7489 18.0439C15.7773 17.9586 15.9197 17.6455 15.9481 17.5602C15.9197 17.5602 15.9197 17.5317 15.9197 17.4463Z" fill="#154655"/>
<path id="Vector_2" d="M8.6331 13.8894C8.66156 13.5479 8.66156 13.2064 8.66156 12.8649C8.66156 8.93788 7.01075 5.77917 4.93302 5.77917C2.85528 5.77917 1.20447 8.96634 1.20447 12.8649C1.20447 13.2064 1.20447 13.5479 1.23294 13.8894H8.6331Z" fill="#AFD13A"/>
<path id="Vector_3" d="M12.8457 12.1535C12.8741 11.6698 12.8741 11.186 12.8741 10.7022C12.8741 5.1816 11.2233 0.685425 9.1456 0.685425C7.09633 0.685425 5.41706 5.15314 5.41706 10.7022C5.41706 11.186 5.41706 11.6982 5.44552 12.1535H12.8457Z" fill="#62BDB5"/>
<path id="Vector_4" d="M11.4796 18.2717C11.4511 17.9302 11.4511 17.5887 11.4511 17.2472C11.4511 13.3202 13.1019 10.1615 15.1797 10.1615C17.2289 10.1615 18.9082 13.3487 18.9082 17.2472C18.9082 17.5887 18.9082 17.9302 18.8797 18.2717H11.4796Z" fill="#62BDB5"/>
<path id="Vector_5" d="M5.53093 18.2717C5.50247 17.7879 5.474 17.3041 5.474 16.8204C5.474 11.2998 7.5802 6.80359 10.1703 6.80359C12.7603 6.80359 14.8665 11.2713 14.8665 16.8204C14.8665 17.3041 14.8381 17.8164 14.8096 18.2717H5.53093Z" fill="#AFD13A"/>
<path id="Vector_6" d="M9.14553 6.83203C7.83627 6.83203 6.69778 8.25487 5.92931 10.4745C5.53084 10.2753 5.13237 10.1615 4.70543 10.1615C2.4 10.1615 0.521497 13.3486 0.521497 17.2472C0.521497 17.5887 0.549958 17.9302 0.578421 18.2717H13.2725C13.301 17.7879 13.3295 17.3041 13.3295 16.8204C13.3295 11.2997 11.451 6.83203 9.14553 6.83203Z" fill="#62BDB5"/>
</g>
</svg>
