<svg width="45" height="32" viewBox="0 0 45 32" fill="none" xmlns="http://www.w3.org/2000/svg">
<g id="Group 7184">
<path id="Vector" d="M7.2374 31.1884C7.2374 31.1884 15.9315 19.646 21.4187 17.8648C26.906 16.0835 21.7038 23.1372 21.7038 23.1372C21.7038 23.1372 31.3956 12.521 34.9587 13.4473C38.2368 14.3023 34.9587 20.9285 34.9587 20.9285C34.9587 20.9285 38.6644 17.2948 43.0827 17.2948C47.5723 17.2948 39.6621 30.9034 39.6621 30.9034L7.2374 31.1884Z" fill="#73C5BE"/>
<g id="Group">
<g id="Group_2">
<g id="Group_3">
<path id="Vector_2" d="M22.7131 15.4933C24.4947 12.7145 24.851 9.29455 24.7797 7.01456C24.7085 4.44957 24.2809 2.59708 24.2809 2.52583L24.4234 2.45459C24.4234 2.45459 24.9223 4.37833 24.9223 6.94332C24.9935 9.29456 24.6372 12.7145 22.7844 15.5645L22.7131 15.4933Z" fill="#3C8F7C"/>
</g>
<g id="Group_4">
<path id="Vector_3" d="M23.853 2.027C23.9243 2.59699 24.138 3.09575 24.4944 3.38075C24.7794 2.95325 24.9932 2.4545 24.9219 1.8845C24.8507 1.3145 24.6369 0.81576 24.2806 0.530762C23.9955 0.88701 23.853 1.457 23.853 2.027Z" fill="#3C8F7C"/>
</g>
<g id="Group_5">
<path id="Vector_4" d="M25.0647 3.38084C24.7796 3.87958 24.6371 4.44958 24.7796 4.94833C25.2785 4.80583 25.7061 4.52083 25.9911 4.02208C26.2762 3.52333 26.4187 2.95334 26.2762 2.45459C25.8486 2.52584 25.421 2.88209 25.0647 3.38084Z" fill="#3C8F7C"/>
</g>
<g id="Group_6">
<path id="Vector_5" d="M25.7776 4.94817C25.2788 5.23317 24.9937 5.73192 24.8512 6.23067C25.2788 6.37317 25.8489 6.30191 26.2765 5.94566C26.7753 5.66066 27.0603 5.16192 27.2029 4.66317C26.7753 4.52067 26.2764 4.59192 25.7776 4.94817Z" fill="#3C8F7C"/>
</g>
<g id="Group_7">
<path id="Vector_6" d="M25.5636 7.08569C25.2073 7.29944 24.9935 7.72693 24.9222 8.22568C25.2786 8.36818 25.7774 8.36818 26.1337 8.15443C26.49 7.94068 26.7038 7.51318 26.7751 7.01444C26.3475 6.80069 25.9199 6.87194 25.5636 7.08569Z" fill="#3C8F7C"/>
</g>
<g id="Group_8">
<path id="Vector_7" d="M23.9958 4.52066C23.5683 4.30691 23.1407 4.30691 22.7131 4.44941C22.7844 4.87691 23.0694 5.30441 23.497 5.51816C23.9246 5.73191 24.3521 5.7319 24.7797 5.5894C24.7085 5.1619 24.4234 4.73441 23.9958 4.52066Z" fill="#3C8F7C"/>
</g>
<g id="Group_9">
<path id="Vector_8" d="M24.0671 6.017C23.6395 5.80325 23.2119 5.80325 22.7844 5.94575C22.8556 6.37324 23.1407 6.80074 23.5682 7.01449C23.9958 7.22824 24.4234 7.22824 24.851 7.08575C24.7797 6.65825 24.4947 6.23075 24.0671 6.017Z" fill="#3C8F7C"/>
</g>
<g id="Group_10">
<path id="Vector_9" d="M25.2786 9.50818C25.0648 9.57943 24.851 9.72193 24.7798 9.93568C24.9223 10.0782 25.1361 10.1494 25.3499 10.0782C25.5636 10.0069 25.7774 9.86442 25.8487 9.65067C25.7062 9.50817 25.4924 9.43693 25.2786 9.50818Z" fill="#3C8F7C"/>
</g>
</g>
<g id="Group_11">
<g id="Group_12">
<path id="Vector_10" d="M23.4969 17.417C27.5589 16.4195 30.6945 13.427 32.6186 11.0757C34.6852 8.51074 35.7541 6.15951 35.8254 6.08826L35.9679 6.15951C35.9679 6.15951 34.8277 8.582 32.7611 11.147C30.837 13.5695 27.7014 16.6332 23.5682 17.5594L23.4969 17.417Z" fill="#3C8F7C"/>
</g>
<g id="Group_13">
<path id="Vector_11" d="M35.7542 5.16201C35.3266 5.80325 35.1841 6.51574 35.3266 7.15699C35.968 7.08574 36.6094 6.72949 37.0369 6.08824C37.4645 5.447 37.607 4.73451 37.4645 4.09326C36.7519 4.23576 36.1818 4.59201 35.7542 5.16201Z" fill="#3C8F7C"/>
</g>
<g id="Group_14">
<path id="Vector_12" d="M35.8257 7.72689C35.1131 7.94064 34.543 8.36814 34.2579 9.00939C34.828 9.36564 35.5407 9.50813 36.2533 9.29438C36.9659 9.08063 37.536 8.65314 37.8211 8.0119C37.251 7.65565 36.5383 7.51314 35.8257 7.72689Z" fill="#3C8F7C"/>
</g>
<g id="Group_15">
<path id="Vector_13" d="M35.2551 10.007C34.5425 9.8645 33.8298 10.007 33.2597 10.3632C33.6161 10.9332 34.1862 11.432 34.8988 11.5745C35.6114 11.717 36.324 11.5745 36.8942 11.2183C36.5378 10.577 35.9677 10.1495 35.2551 10.007Z" fill="#3C8F7C"/>
</g>
<g id="Group_16">
<path id="Vector_14" d="M33.6165 12.0019C32.9039 11.8594 32.1913 12.0019 31.6212 12.3581C31.9775 12.9281 32.5476 13.4269 33.2602 13.5694C33.9729 13.7119 34.6855 13.5694 35.2556 13.2131C34.8993 12.6431 34.3292 12.2156 33.6165 12.0019Z" fill="#3C8F7C"/>
</g>
<g id="Group_17">
<path id="Vector_15" d="M34.0438 8.65315C34.1151 7.94066 33.83 7.29941 33.4737 6.80066C33.0461 7.15691 32.7611 7.79816 32.6898 8.4394C32.6185 9.1519 32.9036 9.79315 33.2599 10.2919C33.7587 9.93565 34.0438 9.2944 34.0438 8.65315Z" fill="#3C8F7C"/>
</g>
<g id="Group_18">
<path id="Vector_16" d="M32.405 10.7194C32.4762 10.0069 32.2624 9.36569 31.8348 8.86694C31.4073 9.22319 31.1222 9.79319 31.0509 10.5057C30.9797 11.2182 31.1935 11.8594 31.6211 12.3582C32.0486 12.0019 32.3337 11.4319 32.405 10.7194Z" fill="#3C8F7C"/>
</g>
<g id="Group_19">
<path id="Vector_17" d="M30.9795 14.0682C30.6945 13.9257 30.4094 13.8544 30.1244 13.9257C30.1956 14.2107 30.3382 14.4957 30.6232 14.6382C30.9083 14.7807 31.1933 14.8519 31.4784 14.7807C31.4071 14.4957 31.2646 14.2107 30.9795 14.0682Z" fill="#3C8F7C"/>
</g>
</g>
<g id="Group_20">
<g id="Group_21">
<g id="Group_22">
<path id="Vector_18" d="M12.665 23.2593H12.5225C12.8075 18.5569 11.026 14.1394 9.60071 11.2894C7.96166 8.15442 6.32261 6.15943 6.25134 6.08818L6.39388 5.94568C6.39388 5.94568 8.10418 8.01192 9.74323 11.1469C11.1685 14.0681 12.8788 18.4856 12.665 23.2593Z" fill="#3C8F7C"/>
</g>
<g id="Group_23">
<path id="Vector_19" d="M5.39631 5.80323C5.82388 6.51572 6.394 6.87197 6.9641 7.01447C7.03536 6.30197 6.89283 5.51823 6.53652 4.80573C6.10894 4.09324 5.53885 3.73698 4.96874 3.59448C4.89748 4.30698 5.03999 5.16198 5.39631 5.80323Z" fill="#3C8F7C"/>
</g>
<g id="Group_24">
<path id="Vector_20" d="M7.60522 6.6582C7.60522 7.5132 7.81901 8.22569 8.24659 8.79569C8.67417 8.36819 8.95922 7.65569 9.03049 6.8007C9.03049 5.9457 8.8167 5.23321 8.38912 4.66321C7.89028 5.09071 7.60522 5.8032 7.60522 6.6582Z" fill="#3C8F7C"/>
</g>
<g id="Group_25">
<path id="Vector_21" d="M9.31606 8.08315C8.95975 8.79565 8.8885 9.5794 9.10228 10.2919C9.67239 10.1494 10.2425 9.7219 10.5275 9.0094C10.8839 8.29691 10.9551 7.51316 10.7413 6.80066C10.1712 6.94316 9.60112 7.37066 9.31606 8.08315Z" fill="#3C8F7C"/>
</g>
<g id="Group_26">
<path id="Vector_22" d="M10.4561 11.7169C10.3136 12.0019 10.2423 12.3581 10.3136 12.6431C10.5274 12.5719 10.8124 12.4294 10.9549 12.1444C11.0975 11.8594 11.1687 11.5031 11.0974 11.2181C10.8837 11.2181 10.6699 11.4319 10.4561 11.7169Z" fill="#3C8F7C"/>
</g>
<g id="Group_27">
<path id="Vector_23" d="M11.026 12.9994C10.8835 13.2844 10.8122 13.6406 10.8835 13.9256C11.0972 13.8544 11.3823 13.7119 11.5248 13.4269C11.6673 13.1419 11.7386 12.7856 11.6674 12.5006C11.3823 12.5006 11.1685 12.7144 11.026 12.9994Z" fill="#3C8F7C"/>
</g>
<g id="Group_28">
<path id="Vector_24" d="M7.10673 8.79565C6.53662 8.79565 5.96651 9.08066 5.6102 9.5794C5.96651 10.0782 6.53661 10.3632 7.17797 10.2919C7.74808 10.2919 8.31819 10.0069 8.6745 9.50815C8.24692 9.08065 7.67683 8.79565 7.10673 8.79565Z" fill="#3C8F7C"/>
</g>
<g id="Group_29">
<path id="Vector_25" d="M8.10462 10.6482C7.53452 10.6482 6.96441 10.9332 6.60809 11.4319C6.96441 11.9306 7.53452 12.2156 8.17589 12.1444C8.74599 12.1444 9.31608 11.8594 9.6724 11.3607C9.24482 10.8619 8.67473 10.5769 8.10462 10.6482Z" fill="#3C8F7C"/>
</g>
<g id="Group_30">
<path id="Vector_26" d="M9.74322 13.0707C9.31564 13.0707 9.0306 13.2844 8.74554 13.5694C9.0306 13.8544 9.38691 14.0682 9.74322 14.0682C10.1708 14.0682 10.4558 13.8544 10.7409 13.5694C10.4558 13.2844 10.0995 13.0707 9.74322 13.0707Z" fill="#3C8F7C"/>
</g>
</g>
</g>
<path id="Vector_27" d="M27.9151 30.8831C27.9151 30.0993 23.2117 31.0256 22.7841 29.9568C22.4278 28.8881 26.8461 28.8168 26.8461 27.3918C26.8461 25.9668 24.5657 26.9643 23.283 26.9643C21.929 26.9643 25.9197 26.3231 25.9197 25.8243C25.9197 25.3256 24.5657 25.6106 24.5657 25.0406C24.5657 24.4706 31.8345 24.1144 30.9794 22.7606C30.1242 21.4069 26.2048 23.1169 25.1358 22.4756C24.0669 21.7631 30.8368 21.0506 31.0506 20.0531C31.1932 19.0556 26.0622 20.9081 25.3496 20.1956C24.637 19.4831 33.5449 16.8469 33.1173 14.9232C32.761 12.9994 26.3473 17.4169 24.7795 16.9181C23.2117 16.4194 32.8322 9.65068 30.5518 7.01444C28.3426 4.3782 24.0669 15.7781 22.5703 15.3506C21.0738 14.9231 24.4232 8.15444 22.9266 6.9432C21.4301 5.73195 17.1543 16.4906 16.8693 18.6994C16.5842 20.9081 16.0854 13.9257 13.7337 13.1419C11.382 12.3582 13.6625 17.4169 13.2349 18.9844C12.8073 20.5519 10.9545 14.9944 8.38899 15.4219C5.82352 15.8494 13.0211 20.9081 12.3085 22.4044C11.5958 23.9006 6.03731 17.4169 4.32699 19.1981C2.61668 20.9081 11.0257 25.7531 10.5269 27.1068C10.028 28.4606 5.03964 26.1806 3.54312 27.6056C2.11786 29.0306 8.9591 29.9568 9.88552 29.9568C10.8119 29.9568 14.3038 31.0968 10.8832 30.8831C7.46257 30.6693 27.9151 31.6668 27.9151 30.8831Z" fill="#3C8F7C"/>
<g id="Group_31">
<path id="Vector_28" d="M14.5178 31.8093C14.5178 31.8093 8.81679 32.0943 7.17774 31.0968C5.53869 30.0281 6.82142 29.2443 6.82142 29.2443C6.82142 29.2443 1.54797 29.1018 1.61923 27.8906C1.61923 26.6793 2.90196 26.7506 2.90196 26.7506C2.90196 26.7506 0.265224 24.9693 0.764065 23.8293C1.54796 22.1194 5.82374 25.1118 5.82374 25.1118C5.82374 25.1118 4.39849 23.4018 5.5387 23.0456C8.67427 21.9056 14.5178 31.8093 14.5178 31.8093Z" fill="#5DB64E"/>
<path id="Vector_29" d="M0.692959 23.7581C0.194118 24.8981 2.83085 26.6793 2.83085 26.6793C2.83085 26.6793 0.90674 26.6793 1.26305 27.8905C1.54811 29.1018 6.394 29.5293 6.394 29.5293C6.394 29.5293 4.68369 29.8855 6.394 30.883C8.03305 31.9518 14.518 31.8093 14.518 31.8093L0.692959 23.7581Z" fill="#3C8F7C"/>
</g>
</g>
</g>
</svg>
