<svg width="111" height="126" viewBox="0 0 111 126" fill="none" xmlns="http://www.w3.org/2000/svg">
<g id="Illustration">
<path id="Vector" d="M-37.3848 122.465C-37.3848 122.465 -2.9175 76.7057 18.8364 69.6441C40.5904 62.5825 19.9665 90.5465 19.9665 90.5465C19.9665 90.5465 58.3891 48.4592 72.515 52.1312C85.5108 55.5208 72.515 81.7901 72.515 81.7901C72.515 81.7901 87.2059 67.3844 104.722 67.3844C122.521 67.3844 91.1612 121.335 91.1612 121.335L-37.3848 122.465Z" fill="#D7F375"/>
<g id="Group">
<g id="Group_2">
<g id="Group_3">
<path id="Vector_2" d="M23.9683 60.2421C31.0313 49.2259 32.4439 35.6676 32.1613 26.6287C31.8788 16.4599 30.1837 9.11581 30.1837 8.83334L30.7488 8.5509C30.7488 8.5509 32.7264 16.1775 32.7264 26.3462C33.0089 35.6676 31.5963 49.2259 24.2509 60.5245L23.9683 60.2421Z" fill="url(#paint0_linear_2791_490)"/>
</g>
<g id="Group_4">
<path id="Vector_3" d="M28.4874 6.85582C28.7699 9.11555 29.6175 11.0928 31.0301 12.2227C32.1602 10.5279 33.0077 8.55062 32.7252 6.2909C32.4427 4.03118 31.5951 2.05393 30.1825 0.924072C29.0524 2.3364 28.4874 4.5961 28.4874 6.85582Z" fill="url(#paint1_linear_2791_490)"/>
</g>
<g id="Group_5">
<path id="Vector_4" d="M33.2909 12.223C32.1609 14.2002 31.5958 16.4599 32.1609 18.4372C34.1385 17.8723 35.8337 16.7424 36.9637 14.7651C38.0938 12.7879 38.6588 10.5282 38.0938 8.5509C36.3987 8.83337 34.7035 10.2457 33.2909 12.223Z" fill="url(#paint2_linear_2791_490)"/>
</g>
<g id="Group_6">
<path id="Vector_5" d="M36.1172 18.437C34.1395 19.5668 33.0095 21.5441 32.4445 23.5214C34.1396 24.0863 36.3997 23.8038 38.0948 22.3915C40.0725 21.2616 41.2025 19.2843 41.7675 17.3071C40.0724 16.7422 38.0948 17.0246 36.1172 18.437Z" fill="url(#paint3_linear_2791_490)"/>
</g>
<g id="Group_7">
<path id="Vector_6" d="M35.2689 26.9111C33.8563 27.7585 33.0088 29.4532 32.7263 31.4305C34.1389 31.9954 36.1164 31.9955 37.529 31.1481C38.9416 30.3007 39.7892 28.6058 40.0717 26.6286C38.3766 25.7812 36.6815 26.0637 35.2689 26.9111Z" fill="url(#paint4_linear_2791_490)"/>
</g>
<g id="Group_8">
<path id="Vector_7" d="M29.0536 16.7421C27.3585 15.8947 25.6634 15.8947 23.9683 16.4597C24.2508 18.1544 25.3809 19.8492 27.076 20.6966C28.7712 21.544 30.4662 21.544 32.1613 20.9791C31.8788 19.2843 30.7487 17.5895 29.0536 16.7421Z" fill="url(#paint5_linear_2791_490)"/>
</g>
<g id="Group_9">
<path id="Vector_8" d="M29.336 22.6739C27.6409 21.8265 25.9458 21.8265 24.2507 22.3914C24.5333 24.0862 25.6633 25.781 27.3584 26.6284C29.0535 27.4758 30.7486 27.4758 32.4438 26.9109C32.1612 25.2161 31.0311 23.5213 29.336 22.6739Z" fill="url(#paint6_linear_2791_490)"/>
</g>
<g id="Group_10">
<path id="Vector_9" d="M34.139 36.5147C33.2915 36.7972 32.4439 37.3622 32.1614 38.2096C32.7264 38.7745 33.5739 39.0569 34.4215 38.7745C35.269 38.492 36.1166 37.9271 36.3992 37.0797C35.8341 36.5147 34.9866 36.2323 34.139 36.5147Z" fill="url(#paint7_linear_2791_490)"/>
</g>
</g>
<g id="Group_11">
<g id="Group_12">
<path id="Vector_10" d="M27.0753 67.8685C43.1789 63.9139 55.6097 52.0504 63.2377 42.729C71.4307 32.5602 75.6685 23.2389 75.951 22.9564L76.5161 23.2389C76.5161 23.2389 71.9958 32.8427 63.8027 43.0115C56.1747 52.6153 43.7438 64.7613 27.3578 68.4334L27.0753 67.8685Z" fill="url(#paint8_linear_2791_490)"/>
</g>
<g id="Group_13">
<path id="Vector_11" d="M75.6687 19.2843C73.9736 21.8265 73.4085 24.6512 73.9735 27.1933C76.5162 26.9109 79.0589 25.4986 80.7541 22.9564C82.4492 20.4142 83.0141 17.5896 82.4491 15.0474C79.6239 15.6123 77.3638 17.0246 75.6687 19.2843Z" fill="url(#paint9_linear_2791_490)"/>
</g>
<g id="Group_14">
<path id="Vector_12" d="M75.9521 29.4531C73.1269 30.3005 70.8667 31.9953 69.7366 34.5375C71.9968 35.9498 74.822 36.5147 77.6472 35.6673C80.4724 34.8199 82.7325 33.1251 83.8626 30.583C81.6024 29.1706 78.7773 28.6057 75.9521 29.4531Z" fill="url(#paint10_linear_2791_490)"/>
</g>
<g id="Group_15">
<path id="Vector_13" d="M73.69 38.4921C70.8648 37.9272 68.0396 38.4921 65.7794 39.9044C67.192 42.1642 69.4522 44.1415 72.2774 44.7064C75.1026 45.2713 77.9277 44.7064 80.1879 43.2941C78.7753 40.7519 76.5152 39.057 73.69 38.4921Z" fill="url(#paint11_linear_2791_490)"/>
</g>
<g id="Group_16">
<path id="Vector_14" d="M67.194 46.4009C64.3688 45.836 61.5437 46.4009 59.2835 47.8133C60.6961 50.073 62.9562 52.0502 65.7814 52.6152C68.6066 53.1801 71.4318 52.6152 73.692 51.2028C72.2794 48.9431 70.0192 47.2483 67.194 46.4009Z" fill="url(#paint12_linear_2791_490)"/>
</g>
<g id="Group_17">
<path id="Vector_15" d="M68.8879 33.125C69.1704 30.3003 68.0403 27.7581 66.6277 25.7809C64.9326 27.1932 63.8025 29.7354 63.52 32.2776C63.2375 35.1023 64.3675 37.6445 65.7801 39.6217C67.7578 38.2094 68.8879 35.6672 68.8879 33.125Z" fill="url(#paint13_linear_2791_490)"/>
</g>
<g id="Group_18">
<path id="Vector_16" d="M62.3908 41.3166C62.6733 38.492 61.8257 35.9498 60.1306 33.9725C58.4354 35.3849 57.3054 37.6446 57.0228 40.4693C56.7403 43.2939 57.5879 45.8361 59.283 47.8133C60.9781 46.401 62.1082 44.1413 62.3908 41.3166Z" fill="url(#paint14_linear_2791_490)"/>
</g>
<g id="Group_19">
<path id="Vector_17" d="M56.7397 54.5924C55.6096 54.0275 54.4795 53.745 53.3494 54.0274C53.6319 55.1573 54.197 56.2872 55.3271 56.8521C56.4572 57.417 57.5872 57.6995 58.7173 57.4171C58.4347 56.2872 57.8698 55.1573 56.7397 54.5924Z" fill="url(#paint15_linear_2791_490)"/>
</g>
</g>
<path id="Vector_18" d="M44.5908 121.254C44.5908 118.147 25.9446 121.819 24.2495 117.582C22.8369 113.345 40.353 113.063 40.353 107.413C40.353 101.764 31.3124 105.719 26.2271 105.719C20.8592 105.719 36.6803 103.176 36.6803 101.199C36.6803 99.2219 31.3125 100.352 31.3125 98.092C31.3125 95.8323 60.1294 94.42 56.7391 89.0532C53.3489 83.6863 37.8103 90.4655 33.5726 87.9233C29.3348 85.0986 56.174 82.274 57.0216 78.3195C57.5866 74.3649 37.2453 81.709 34.4201 78.8844C31.5949 76.0597 66.9098 65.6085 65.2147 57.982C63.8021 50.3554 38.3754 67.8683 32.16 65.891C25.9446 63.9137 64.0846 37.0795 55.044 26.6283C46.2859 16.177 29.3348 61.3715 23.4019 59.6767C17.469 57.9819 30.7474 31.1477 24.8145 26.3458C18.8816 21.5439 1.93046 64.1962 0.800385 72.9526C-0.329689 81.7091 -2.3073 54.0274 -11.6304 50.9203C-20.9535 47.8132 -11.913 67.8682 -13.6081 74.0825C-15.3032 80.2967 -22.6486 58.2644 -32.8193 59.9592C-42.99 61.654 -14.4556 81.7091 -17.2808 87.6408C-20.106 93.5726 -42.1425 67.8682 -48.9229 74.9299C-55.7034 81.7091 -22.3661 100.917 -24.3438 106.284C-26.3214 111.65 -46.0977 102.612 -52.0306 108.261C-57.6809 113.91 -30.5592 117.582 -26.8864 117.582C-23.2137 117.582 -9.37027 122.102 -22.9312 121.254C-36.4921 120.407 44.5908 124.361 44.5908 121.254Z" fill="url(#paint16_linear_2791_490)"/>
</g>
</g>
<defs>
<linearGradient id="paint0_linear_2791_490" x1="23.968" y1="34.5366" x2="32.757" y2="34.5366" gradientUnits="userSpaceOnUse">
<stop stop-color="#5DB53C"/>
<stop offset="1" stop-color="#2FA043"/>
</linearGradient>
<linearGradient id="paint1_linear_2791_490" x1="28.4873" y1="6.57314" x2="32.7787" y2="6.57314" gradientUnits="userSpaceOnUse">
<stop stop-color="#5DB53C"/>
<stop offset="1" stop-color="#2FA043"/>
</linearGradient>
<linearGradient id="paint2_linear_2791_490" x1="31.939" y1="13.4938" x2="38.3136" y2="13.4938" gradientUnits="userSpaceOnUse">
<stop stop-color="#5DB53C"/>
<stop offset="1" stop-color="#2FA043"/>
</linearGradient>
<linearGradient id="paint3_linear_2791_490" x1="32.4442" y1="20.4141" x2="41.7648" y2="20.4141" gradientUnits="userSpaceOnUse">
<stop stop-color="#5DB53C"/>
<stop offset="1" stop-color="#2FA043"/>
</linearGradient>
<linearGradient id="paint4_linear_2791_490" x1="32.726" y1="28.9705" x2="40.0695" y2="28.9705" gradientUnits="userSpaceOnUse">
<stop stop-color="#5DB53C"/>
<stop offset="1" stop-color="#2FA043"/>
</linearGradient>
<linearGradient id="paint5_linear_2791_490" x1="23.9681" y1="18.7192" x2="32.1589" y2="18.7192" gradientUnits="userSpaceOnUse">
<stop stop-color="#5DB53C"/>
<stop offset="1" stop-color="#2FA043"/>
</linearGradient>
<linearGradient id="paint6_linear_2791_490" x1="24.2505" y1="24.651" x2="32.4414" y2="24.651" gradientUnits="userSpaceOnUse">
<stop stop-color="#5DB53C"/>
<stop offset="1" stop-color="#2FA043"/>
</linearGradient>
<linearGradient id="paint7_linear_2791_490" x1="32.1612" y1="37.6446" x2="36.3979" y2="37.6446" gradientUnits="userSpaceOnUse">
<stop stop-color="#5DB53C"/>
<stop offset="1" stop-color="#2FA043"/>
</linearGradient>
<linearGradient id="paint8_linear_2791_490" x1="27.0738" y1="45.6939" x2="76.5016" y2="45.6939" gradientUnits="userSpaceOnUse">
<stop stop-color="#5DB53C"/>
<stop offset="1" stop-color="#2FA043"/>
</linearGradient>
<linearGradient id="paint9_linear_2791_490" x1="73.7614" y1="21.1201" x2="82.6584" y2="21.1201" gradientUnits="userSpaceOnUse">
<stop stop-color="#5DB53C"/>
<stop offset="1" stop-color="#2FA043"/>
</linearGradient>
<linearGradient id="paint10_linear_2791_490" x1="69.7362" y1="32.56" x2="83.8584" y2="32.56" gradientUnits="userSpaceOnUse">
<stop stop-color="#5DB53C"/>
<stop offset="1" stop-color="#2FA043"/>
</linearGradient>
<linearGradient id="paint11_linear_2791_490" x1="65.779" y1="41.5991" x2="80.1837" y2="41.5991" gradientUnits="userSpaceOnUse">
<stop stop-color="#5DB53C"/>
<stop offset="1" stop-color="#2FA043"/>
</linearGradient>
<linearGradient id="paint12_linear_2791_490" x1="59.2831" y1="49.5079" x2="73.6878" y2="49.5079" gradientUnits="userSpaceOnUse">
<stop stop-color="#5DB53C"/>
<stop offset="1" stop-color="#2FA043"/>
</linearGradient>
<linearGradient id="paint13_linear_2791_490" x1="63.4763" y1="32.701" x2="68.9298" y2="32.701" gradientUnits="userSpaceOnUse">
<stop stop-color="#5DB53C"/>
<stop offset="1" stop-color="#2FA043"/>
</linearGradient>
<linearGradient id="paint14_linear_2791_490" x1="56.9691" y1="40.8926" x2="62.4427" y2="40.8926" gradientUnits="userSpaceOnUse">
<stop stop-color="#5DB53C"/>
<stop offset="1" stop-color="#2FA043"/>
</linearGradient>
<linearGradient id="paint15_linear_2791_490" x1="53.3493" y1="55.7222" x2="58.7157" y2="55.7222" gradientUnits="userSpaceOnUse">
<stop stop-color="#5DB53C"/>
<stop offset="1" stop-color="#2FA043"/>
</linearGradient>
<linearGradient id="paint16_linear_2791_490" x1="-52.8057" y1="73.7593" x2="65.2393" y2="73.7593" gradientUnits="userSpaceOnUse">
<stop stop-color="#5DB53C"/>
<stop offset="1" stop-color="#2FA043"/>
</linearGradient>
</defs>
</svg>
