<svg width="20" height="24" viewBox="0 0 20 24" fill="none" xmlns="http://www.w3.org/2000/svg">
<g id="Vector">
<path d="M16.5086 0.37207C16.6715 0.408477 16.8344 0.444884 16.9972 0.485842C18.6834 0.931829 19.8765 2.56104 19.7885 4.30403C19.6916 6.18355 18.4017 7.68989 16.6318 7.94474C15.4696 8.11312 14.4482 7.76725 13.5809 6.94354C13.5236 6.88893 13.4664 6.82977 13.4048 6.77061C13.4004 6.76606 13.3916 6.76606 13.3651 6.75241C11.362 8.03575 9.35 9.32365 7.32923 10.6161C7.65942 11.5399 7.65942 12.4547 7.32923 13.3785C9.3456 14.6709 11.3532 15.9543 13.3739 17.2513C13.4972 17.1375 13.6161 17.0192 13.7438 16.9054C14.9325 15.8724 16.6054 15.7222 17.9482 16.5231C19.269 17.315 20.0086 18.9078 19.7444 20.4142C19.4627 22.0525 18.2872 23.2858 16.7419 23.5679C14.0431 24.064 11.7714 21.4017 12.5947 18.6939C12.6563 18.4891 12.6211 18.3981 12.445 18.2843C10.5563 17.0875 8.67201 15.8769 6.79211 14.6664C6.65123 14.5754 6.57639 14.5936 6.46192 14.7073C5.35248 15.8269 3.72793 16.1181 2.33672 15.4491C0.954318 14.7847 0.0870132 13.3102 0.214688 11.7402C0.342362 10.1701 1.13042 9.0324 2.55245 8.45899C3.97888 7.88558 5.28204 8.19048 6.4223 9.24174C6.47953 9.29635 6.52356 9.36916 6.57199 9.43288C6.65123 9.39192 6.69966 9.37371 6.73928 9.34641C8.6632 8.11767 10.5827 6.88438 12.5066 5.65564C12.6299 5.57828 12.6563 5.51457 12.6079 5.36894C11.9035 3.07074 13.2859 0.786201 15.6148 0.408477C15.6501 0.403926 15.6809 0.385723 15.7161 0.37207C15.9803 0.37207 16.2444 0.37207 16.5086 0.37207ZM16.1123 22.2345C17.4111 22.23 18.4501 21.1468 18.4413 19.8043C18.4369 18.48 17.3847 17.406 16.0991 17.406C14.8048 17.406 13.757 18.5028 13.7702 19.8407C13.7834 21.1741 14.8224 22.2391 16.1123 22.2345ZM13.7702 4.18116C13.7702 5.51002 14.8136 6.59313 16.0947 6.59768C17.3891 6.60223 18.4413 5.51457 18.4413 4.18116C18.4413 2.8432 17.3891 1.76009 16.0903 1.76919C14.8004 1.77374 13.7702 2.84775 13.7702 4.18116ZM1.55307 11.9905C1.54866 13.3193 2.58327 14.4024 3.86881 14.4115C5.16757 14.4206 6.22418 13.3421 6.22418 12.0087C6.22859 10.6798 5.19398 9.59671 3.90403 9.5876C2.60528 9.5785 1.55747 10.648 1.55307 11.9905Z" fill="white"/>
<path d="M18.9549 4.55455C18.9549 6.08487 17.7143 7.32544 16.184 7.32544C14.6537 7.32544 13.4131 6.08487 13.4131 4.55455C13.4131 3.02422 14.6537 1.78365 16.184 1.78365C17.7143 1.78365 18.9549 3.02422 18.9549 4.55455Z" fill="white"/>
<path d="M6.92648 12.0001C6.92648 13.5304 5.68591 14.771 4.15559 14.771C2.62526 14.771 1.38469 13.5304 1.38469 12.0001C1.38469 10.4698 2.62526 9.2292 4.15559 9.2292C5.68591 9.2292 6.92648 10.4698 6.92648 12.0001Z" fill="white"/>
<path d="M18.9549 19.998C18.9549 21.5283 17.7143 22.7689 16.184 22.7689C14.6537 22.7689 13.4131 21.5283 13.4131 19.998C13.4131 18.4676 14.6537 17.2271 16.184 17.2271C17.7143 17.2271 18.9549 18.4676 18.9549 19.998Z" fill="white"/>
</g>
</svg>
